<svg xmlns="http://www.w3.org/2000/svg" xmlns:xlink="http://www.w3.org/1999/xlink" width="610.675" height="408.022" viewBox="0 0 610.675 408.022">
  <defs>
    <linearGradient id="linear-gradient" x1="0.936" y1="-0.078" x2="-0.19" y2="1.416" gradientUnits="objectBoundingBox">
      <stop offset="0" stop-color="#4042e2"/>
      <stop offset="1" stop-color="#4e33ac"/>
    </linearGradient>
    <linearGradient id="linear-gradient-2" y1="0.5" x2="1" y2="0.5" gradientUnits="objectBoundingBox">
      <stop offset="0" stop-color="#dae3fe"/>
      <stop offset="1" stop-color="#e9effd"/>
    </linearGradient>
    <linearGradient id="linear-gradient-3" x1="1.214" y1="-0.449" x2="-0.632" y2="2.003" xlink:href="#linear-gradient"/>
    <linearGradient id="linear-gradient-5" x1="2.344" y1="-1.948" x2="-2.422" y2="4.38" gradientUnits="objectBoundingBox">
      <stop offset="0" stop-color="#e1473d"/>
      <stop offset="1" stop-color="#e9605a"/>
    </linearGradient>
    <linearGradient id="linear-gradient-7" x1="-148.101" y1="4.483" x2="-156.101" y2="5.341" gradientUnits="objectBoundingBox">
      <stop offset="0" stop-color="#2b3582"/>
      <stop offset="1" stop-color="#150e42"/>
    </linearGradient>
    <linearGradient id="linear-gradient-8" x1="-17.947" y1="19.241" x2="-18.268" y2="22.688" gradientUnits="objectBoundingBox">
      <stop offset="0" stop-color="#09005d"/>
      <stop offset="1" stop-color="#1a0f91"/>
    </linearGradient>
    <linearGradient id="linear-gradient-9" x1="-14.743" y1="27.404" x2="-15.043" y2="32.144" gradientUnits="objectBoundingBox">
      <stop offset="0" stop-color="#fe7062"/>
      <stop offset="1" stop-color="#ff712f"/>
    </linearGradient>
    <linearGradient id="linear-gradient-10" x1="-11.099" y1="18.997" x2="-11.54" y2="22.216" xlink:href="#linear-gradient-9"/>
    <linearGradient id="linear-gradient-11" x1="1.443" y1="-0.166" x2="-1.574" y2="2.017" xlink:href="#linear-gradient-9"/>
    <linearGradient id="linear-gradient-12" x1="1.289" y1="-0.198" x2="-1.232" y2="2.107" xlink:href="#linear-gradient"/>
    <linearGradient id="linear-gradient-13" x1="1.184" y1="-0.229" x2="-0.994" y2="2.2" xlink:href="#linear-gradient-9"/>
    <linearGradient id="linear-gradient-14" x1="0.947" y1="-0.434" x2="-0.467" y2="2.738" xlink:href="#linear-gradient"/>
    <linearGradient id="linear-gradient-15" x1="302.263" y1="0.23" x2="221.464" y2="1.744" xlink:href="#linear-gradient-8"/>
    <linearGradient id="linear-gradient-16" x1="281.062" y1="0.119" x2="200.263" y2="1.633" xlink:href="#linear-gradient-8"/>
    <linearGradient id="linear-gradient-17" x1="8.251" y1="0.5" x2="9.251" y2="0.5" xlink:href="#linear-gradient-9"/>
    <linearGradient id="linear-gradient-18" x1="9.44" y1="0.5" x2="10.44" y2="0.5" xlink:href="#linear-gradient-9"/>
    <linearGradient id="linear-gradient-19" x1="10.691" y1="0.5" x2="11.691" y2="0.5" xlink:href="#linear-gradient-9"/>
    <linearGradient id="linear-gradient-20" x1="15.012" y1="0.5" x2="16.012" y2="0.5" xlink:href="#linear-gradient-9"/>
    <linearGradient id="linear-gradient-21" x1="15.346" y1="0.5" x2="16.346" y2="0.5" xlink:href="#linear-gradient-9"/>
    <linearGradient id="linear-gradient-22" x1="14.752" y1="0.5" x2="15.752" y2="0.5" xlink:href="#linear-gradient-9"/>
    <linearGradient id="linear-gradient-23" x1="13.29" y1="0.5" x2="14.29" y2="0.5" xlink:href="#linear-gradient-9"/>
    <linearGradient id="linear-gradient-24" x1="12.724" y1="0.5" x2="13.724" y2="0.5" xlink:href="#linear-gradient-9"/>
    <linearGradient id="linear-gradient-25" x1="0.462" y1="0.848" x2="0.084" y2="2.512" gradientUnits="objectBoundingBox">
      <stop offset="0" stop-color="#ff928e"/>
      <stop offset="1" stop-color="#feb3b1"/>
    </linearGradient>
    <linearGradient id="linear-gradient-26" x1="81.421" y1="13.486" x2="81.231" y2="17.206" xlink:href="#linear-gradient"/>
    <linearGradient id="linear-gradient-27" x1="1.852" y1="-0.074" x2="-0.138" y2="0.65" xlink:href="#linear-gradient-25"/>
    <linearGradient id="linear-gradient-28" x1="93.355" y1="16.797" x2="93.133" y2="19.905" xlink:href="#linear-gradient"/>
    <linearGradient id="linear-gradient-29" x1="0.602" y1="1.081" x2="0.288" y2="-1.187" xlink:href="#linear-gradient-9"/>
    <linearGradient id="linear-gradient-30" x1="12.556" y1="0.088" x2="10.02" y2="2.712" xlink:href="#linear-gradient"/>
    <linearGradient id="linear-gradient-31" x1="0.377" y1="0.157" x2="0.78" y2="1.584" xlink:href="#linear-gradient-25"/>
    <linearGradient id="linear-gradient-32" x1="1.245" y1="0.234" x2="0.072" y2="0.595" xlink:href="#linear-gradient-25"/>
    <linearGradient id="linear-gradient-33" x1="67.532" y1="22.239" x2="65.99" y2="24.457" xlink:href="#linear-gradient-8"/>
    <linearGradient id="linear-gradient-34" x1="2.114" y1="0.148" x2="-2.947" y2="1.305" xlink:href="#linear-gradient-25"/>
    <linearGradient id="linear-gradient-35" x1="0.744" y1="-7.755" x2="0.538" y2="-0.581" xlink:href="#linear-gradient-25"/>
    <linearGradient id="linear-gradient-36" x1="36.938" y1="15.278" x2="36.026" y2="17.085" xlink:href="#linear-gradient-8"/>
    <linearGradient id="linear-gradient-37" x1="43.651" y1="39.095" x2="42.912" y2="41.531" xlink:href="#linear-gradient-8"/>
    <linearGradient id="linear-gradient-38" x1="33.664" y1="0.134" x2="33.264" y2="0.8" xlink:href="#linear-gradient-8"/>
    <linearGradient id="linear-gradient-39" x1="-140.557" y1="0.5" x2="-139.538" y2="0.5" xlink:href="#linear-gradient-8"/>
    <linearGradient id="linear-gradient-40" x1="-137.949" y1="0.5" x2="-136.949" y2="0.5" xlink:href="#linear-gradient"/>
    <linearGradient id="linear-gradient-41" x1="-303.246" y1="0.5" x2="-302.246" y2="0.5" xlink:href="#linear-gradient-8"/>
    <linearGradient id="linear-gradient-42" x1="-312.555" y1="0.5" x2="-311.555" y2="0.5" xlink:href="#linear-gradient"/>
    <linearGradient id="linear-gradient-43" x1="-466.601" y1="0.5" x2="-465.601" y2="0.5" xlink:href="#linear-gradient-25"/>
    <linearGradient id="linear-gradient-44" x1="-547.349" y1="0.5" x2="-546.349" y2="0.5" xlink:href="#linear-gradient-25"/>
    <linearGradient id="linear-gradient-45" x1="-58.624" y1="-0.024" x2="-60.729" y2="1.306" xlink:href="#linear-gradient"/>
    <linearGradient id="linear-gradient-46" x1="-764.345" y1="-3.524" x2="-770.083" y2="3.756" xlink:href="#linear-gradient-8"/>
    <linearGradient id="linear-gradient-47" x1="-41.378" y1="20.088" x2="-40.972" y2="21.928" xlink:href="#linear-gradient-8"/>
    <linearGradient id="linear-gradient-48" x1="-224.195" y1="-0.236" x2="-226.338" y2="1.254" xlink:href="#linear-gradient-25"/>
    <linearGradient id="linear-gradient-49" x1="0.419" y1="0.53" x2="0.729" y2="1.65" xlink:href="#linear-gradient-25"/>
    <linearGradient id="linear-gradient-51" x1="1.921" y1="-8.002" x2="2.165" y2="-6.531" xlink:href="#linear-gradient-9"/>
    <linearGradient id="linear-gradient-52" x1="-91.102" y1="15.792" x2="-90.236" y2="17.207" xlink:href="#linear-gradient-8"/>
    <linearGradient id="linear-gradient-53" x1="0.411" y1="-0.35" x2="0.487" y2="0.476" xlink:href="#linear-gradient-25"/>
    <linearGradient id="linear-gradient-54" x1="-0.041" y1="0.464" x2="0.845" y2="0.573" xlink:href="#linear-gradient-25"/>
    <linearGradient id="linear-gradient-55" x1="-136.629" y1="0.154" x2="-135.9" y2="1.105" xlink:href="#linear-gradient-8"/>
    <linearGradient id="linear-gradient-56" x1="-3.192" y1="0.149" x2="0.434" y2="0.503" xlink:href="#linear-gradient-25"/>
    <linearGradient id="linear-gradient-57" x1="0" y1="0.5" x2="1" y2="0.5" xlink:href="#linear-gradient-25"/>
    <linearGradient id="linear-gradient-58" x1="145.674" y1="0.5" x2="146.674" y2="0.5" xlink:href="#linear-gradient-8"/>
    <linearGradient id="linear-gradient-59" x1="0" y1="0.5" x2="1" y2="0.5" xlink:href="#linear-gradient"/>
    <linearGradient id="linear-gradient-60" x1="302.889" y1="-0.895" x2="302.402" y2="2.472" xlink:href="#linear-gradient-25"/>
    <linearGradient id="linear-gradient-62" x1="113.094" y1="0.5" x2="114.094" y2="0.5" xlink:href="#linear-gradient-8"/>
    <linearGradient id="linear-gradient-63" x1="404.931" y1="-14.393" x2="404.505" y2="-11.56" xlink:href="#linear-gradient-25"/>
    <linearGradient id="linear-gradient-64" x1="0" y1="0.5" x2="1" y2="0.5" xlink:href="#linear-gradient-8"/>
    <linearGradient id="linear-gradient-65" x1="1.124" y1="-0.059" x2="-0.896" y2="1.313" xlink:href="#linear-gradient"/>
    <linearGradient id="linear-gradient-66" x1="0.726" y1="0.455" x2="-2.22" y2="3.013" xlink:href="#linear-gradient"/>
    <linearGradient id="linear-gradient-67" x1="0.972" y1="-0.224" x2="-1.121" y2="3.006" xlink:href="#linear-gradient-25"/>
    <linearGradient id="linear-gradient-68" x1="2.307" y1="-0.231" x2="-0.801" y2="1.247" xlink:href="#linear-gradient"/>
    <linearGradient id="linear-gradient-69" x1="185.765" y1="-9.15" x2="184.816" y2="-5.801" xlink:href="#linear-gradient-25"/>
    <linearGradient id="linear-gradient-70" x1="0.771" y1="0.469" x2="-0.454" y2="0.839" xlink:href="#linear-gradient-25"/>
    <linearGradient id="linear-gradient-71" x1="69.585" y1="50.271" x2="70.719" y2="50.271" xlink:href="#linear-gradient-8"/>
    <linearGradient id="linear-gradient-72" x1="263.808" y1="237.457" x2="266.725" y2="234.977" xlink:href="#linear-gradient-25"/>
    <linearGradient id="linear-gradient-74" x1="2.967" y1="-0.221" x2="-5.083" y2="2.013" xlink:href="#linear-gradient-9"/>
    <linearGradient id="linear-gradient-75" x1="1.299" y1="-0.116" x2="-3.301" y2="3.162" xlink:href="#linear-gradient"/>
    <linearGradient id="linear-gradient-99" x1="0" y1="0.5" y2="0.5" xlink:href="#linear-gradient-2"/>
  </defs>
  <g id="vision" transform="translate(-124.461 -80.998)">
    <g id="Group_28" data-name="Group 28" transform="translate(124.461 80.998)">
      <g id="Group_1" data-name="Group 1" transform="translate(323.273 306.722)">
        <path id="Path_2" data-name="Path 2" d="M1279.061,1265.51s19.827-28.17,68.061-37.73c44.752-8.87,152.145-26.793,190.4-50.989a1.851,1.851,0,0,1,2.55,2.574c-11.827,17.966-44.983,60.635-105.739,84.348C1355.983,1294.292,1279.061,1265.51,1279.061,1265.51Z" transform="translate(-1279.061 -1176.486)" fill="#91b3fa"/>
        <path id="Path_3" data-name="Path 3" d="M1534.815,1266.5a79.106,79.106,0,0,1-10.44,9.711c-.465.372-.922.755-1.392,1.12l-1.432,1.066-2.867,2.133-2.954,2.011c-.991.662-1.956,1.365-2.987,1.964a168.579,168.579,0,0,1-25.391,13.113c-2.169,1-4.432,1.762-6.661,2.609-2.242.811-4.451,1.725-6.741,2.4l-6.821,2.167c-1.13.387-2.294.651-3.445.961l-3.462.9-3.462.9-1.732.446-1.75.366-7,1.463c-1.168.234-2.333.509-3.5.71l-3.513.611-7.026,1.221c-9.382,1.544-18.776,3.023-28.2,4.269-4.708.659-9.424,1.242-14.137,1.849l-14.153,1.67c-9.433,1.1-18.864,2.19-28.238,3.582-2.35.316-4.676.747-7.012,1.139-1.171.182-2.325.441-3.484.674s-2.323.459-3.473.729c-2.287.589-4.6,1.1-6.844,1.844-2.284.625-4.466,1.529-6.679,2.364l-.015.006a.281.281,0,0,1-.215-.519,83.99,83.99,0,0,1,13.519-4.657c1.153-.3,2.319-.545,3.479-.821s2.32-.554,3.49-.766c2.337-.452,4.67-.943,7.02-1.319,9.384-1.608,18.819-2.777,28.233-4.031l14.119-1.872c4.7-.638,9.409-1.249,14.1-1.936,9.4-1.325,18.769-2.794,28.129-4.34l7.009-1.222,3.5-.611c1.168-.2,2.319-.461,3.48-.689l6.95-1.412,1.738-.353,1.719-.433,3.436-.876a209.48,209.48,0,0,0,26.985-8.647,167.2,167.2,0,0,0,25.466-12.442c1.037-.573,2.006-1.252,3.016-1.869l3-1.894,2.921-2.018,1.461-1.01c.48-.346.947-.709,1.421-1.064.94-.719,1.9-1.411,2.826-2.154l2.749-2.253a69.841,69.841,0,0,0,5.206-4.841.035.035,0,0,1,.049,0A.036.036,0,0,1,1534.815,1266.5Z" transform="translate(-1308.26 -1241.255)" fill="#dce5fe"/>
      </g>
      <g id="Group_2" data-name="Group 2" transform="translate(278.093 73.724)">
        <path id="Path_4" data-name="Path 4" d="M1450.142,349.038c-11.657,42.539-89.6,287.324-332.445,255.439,0,0,9.831-174.36,327.885-260.035A3.732,3.732,0,0,1,1450.142,349.038Z" transform="translate(-1117.697 -344.31)" fill="#bdd0fb"/>
        <path id="Path_5" data-name="Path 5" d="M1554.657,456.476c-8.743,11.058-17.707,21.924-26.766,32.716s-18.251,21.469-27.563,32.042-18.748,21.039-28.308,31.39-19.289,20.548-29.14,30.626c-19.739,20.116-40.077,39.674-61.449,58.084q-15.984,13.857-32.974,26.52a355.732,355.732,0,0,1-35.306,23.406,1.122,1.122,0,1,1-1.114-1.949l0,0,0,0a353.556,353.556,0,0,0,35.173-23.128q16.957-12.519,32.961-26.3c21.387-18.28,41.77-37.73,61.561-57.746q14.818-15.041,29.227-30.482,14.387-15.459,28.406-31.257t27.668-31.915c9.093-10.748,18.1-21.58,26.869-32.586l0,0a.475.475,0,0,1,.745.591Z" transform="translate(-1257.217 -424.516)" fill="#dce5fe"/>
      </g>
      <g id="Group_3" data-name="Group 3" transform="translate(267.251 225.675)">
        <path id="Path_6" data-name="Path 6" d="M1388.082,891.031a2.622,2.622,0,0,0-3.559-3.633c-22.687,13.41-83.276,46.709-130.542,49.916-76.96,5.221-165.931,48.149-175.006,105.8C1078.974,1043.113,1232.555,1144.057,1388.082,891.031Z" transform="translate(-1078.974 -887.019)" fill="#bdd0fb"/>
        <path id="Path_7" data-name="Path 7" d="M1433.152,980.717c-.594.522-1.164.938-1.741,1.4l-1.743,1.32-3.512,2.6q-3.526,2.58-7.093,5.1-7.135,5.044-14.384,9.925c-9.667,6.5-19.5,12.758-29.429,18.856s-20.007,11.958-30.2,17.6l-3.82,2.122-3.848,2.072c-2.571,1.37-5.118,2.788-7.712,4.115l-7.755,4.034-7.816,3.917a568,568,0,0,1-64.367,27.285c-.688.24-1.371.493-2.063.724l-2.079.677-4.158,1.355-4.158,1.354c-1.392.434-2.795.832-4.191,1.25l-4.195,1.239c-1.4.4-2.788.854-4.2,1.2l-8.46,2.221a309.372,309.372,0,0,1-34.359,6.453.281.281,0,0,1-.077-.556h0a330.9,330.9,0,0,0,34.146-7.023l8.41-2.3c1.407-.362,2.786-.828,4.178-1.241l4.168-1.276c1.388-.43,2.782-.839,4.165-1.286l4.131-1.391,4.131-1.391,2.065-.7c.687-.237,1.366-.5,2.049-.742l8.194-2.978c2.725-1.009,5.422-2.094,8.135-3.137,1.353-.531,2.713-1.043,4.059-1.588l4.028-1.667,4.029-1.667c1.345-.551,2.686-1.111,4.013-1.7,10.694-4.566,21.2-9.553,31.656-14.642,20.874-10.263,41.217-21.589,61.176-33.544q14.956-8.992,29.559-18.559,7.306-4.773,14.514-9.695,3.593-2.475,7.16-4.988l3.545-2.542,1.757-1.29c.572-.435,1.18-.878,1.69-1.3l.047-.039a.278.278,0,0,1,.363.423Z" transform="translate(-1152.825 -954.132)" fill="#dce5fe"/>
      </g>
      <g id="Group_4" data-name="Group 4" transform="translate(103.616 51.226)">
        <path id="Path_8" data-name="Path 8" d="M564.021,504.349s7.879-49.411-13.16-65.764-63.328-30.514-55.335-101.912c4.679-41.8,6.11-60.158,6.493-68.2a4.735,4.735,0,0,1,6.22-4.276c21.073,7,89.051,33.257,97.3,83.192C615.316,406.593,564.021,504.349,564.021,504.349Z" transform="translate(-494.534 -263.957)" fill="#91b3fa"/>
        <path id="Path_9" data-name="Path 9" d="M589.913,343.492c11.446,13.926,20.886,29.3,29.321,45.192,2.031,4.013,4.105,8.009,5.95,12.115l1.422,3.061.711,1.531.666,1.551,2.653,6.21.656,1.556.608,1.576,1.215,3.151,1.215,3.152.608,1.576.558,1.594c1.45,4.268,3.027,8.474,4.268,12.85.345,1.08.613,2.181.908,3.275s.589,2.189.86,3.288l.759,3.312.378,1.656.326,1.667.651,3.334.552,3.351c.19,1.116.364,2.234.5,3.358l.438,3.366a187.2,187.2,0,0,1,1.157,27.073,214.829,214.829,0,0,1-2.454,26.941q-1.063,6.679-2.543,13.281c-.986,4.408-2.107,8.749-3.525,13.094a1.21,1.21,0,0,1-2.314-.709l.01-.034c.6-2.089,1.135-4.269,1.629-6.426s.971-4.335,1.393-6.517q1.281-6.543,2.147-13.157a218.017,218.017,0,0,0,2-26.55,202.324,202.324,0,0,0-1.367-26.535,167.258,167.258,0,0,0-5.24-25.984c-1.207-4.238-2.72-8.441-4.118-12.659l-.537-1.579-.587-1.561-1.174-3.123-1.174-3.123-.587-1.562-.635-1.543c-3.276-8.277-6.979-16.377-10.855-24.4q-5.936-11.971-12.8-23.467a256.68,256.68,0,0,0-14.713-22.314l-.019-.026a.686.686,0,0,1,1.081-.845Z" transform="translate(-562.332 -321.043)" fill="#dce5fe"/>
      </g>
      <g id="Group_5" data-name="Group 5" transform="translate(31.522 141.103)">
        <path id="Path_10" data-name="Path 10" d="M354.65,827.3c3.129,2.411-23.946-50.741-20.726-124.914C335.442,667.438,344,625,328.04,604.727c-13.285-16.872-69.658-19.394-88.2-19.766a2.735,2.735,0,0,0-2.2,4.436c7.107,8.942,21.988,29.652,23.285,47.736,1.709,23.836,20.234,42.545,38.642,50.332S327.89,701.193,331,733.8,345.758,820.452,354.65,827.3Z" transform="translate(-237.044 -584.961)" fill="#bdd0fb"/>
        <path id="Path_11" data-name="Path 11" d="M328.585,637.659a89.091,89.091,0,0,1,31.585,15.25,69.676,69.676,0,0,1,12.683,12.366,60.138,60.138,0,0,1,8.837,15.416l.787,2.088c.258.7.45,1.417.678,2.125.21.71.448,1.426.634,2.132l.563,2.118q1.137,4.234,2.217,8.482,2.159,8.5,4.052,17.06c2.53,11.415,4.716,22.9,6.2,34.518a.472.472,0,0,1-.933.145l0-.015q-1.542-8.585-3.424-17.135-1.84-8.545-3.885-17.043l-2.069-8.491-2.166-8.467q-1.081-4.234-2.234-8.449l-.568-2.11c-.188-.7-.415-1.373-.62-2.061s-.4-1.375-.641-2.047l-.747-2.011a59.723,59.723,0,0,0-8.409-14.909,66.16,66.16,0,0,0-5.689-6.46l-.757-.767-.787-.737c-.527-.49-1.042-.993-1.579-1.472-1.089-.942-2.166-1.9-3.306-2.783a89.078,89.078,0,0,0-14.549-9.384A92.419,92.419,0,0,0,328.4,638.4l-.023-.007a.379.379,0,0,1,.2-.729Z" transform="translate(-302.614 -622.895)" fill="#dce5fe"/>
      </g>
      <g id="Group_6" data-name="Group 6" transform="translate(0 246.203)">
        <path id="Path_12" data-name="Path 12" d="M269.008,1100.872c2.1,1.11-11.857-22.921-12.928-44.093s-5.848-57.306-24.1-78.922-38.251-23.588-63.444-3.937c-20.994,16.375-34.09,24.64-41.77,26.176a2.9,2.9,0,0,0-1.947,4.231c4.926,9.071,18.853,29.908,42.236,28.441,29.827-1.871,65.976-21.261,76.993-5.086s9.6,25.226,9.941,32.891S255.078,1093.527,269.008,1100.872Z" transform="translate(-124.461 -960.334)" fill="#91b3fa"/>
        <path id="Path_13" data-name="Path 13" d="M312.075,1061.595a60.546,60.546,0,0,1,5.21-4.334c1.805-1.356,3.666-2.647,5.6-3.826a56.23,56.23,0,0,1,12.344-5.789,38.665,38.665,0,0,1,6.743-1.511,28.724,28.724,0,0,1,6.986-.026c.58.094,1.167.149,1.742.279s1.16.244,1.715.4l3.282,1.017,3.211,1.248,3.112,1.495a39.22,39.22,0,0,1,10.842,8.47,48.814,48.814,0,0,1,7.521,11.415l.75,1.53c.257.507.444,1.043.67,1.564.425,1.051.882,2.089,1.278,3.148l1.109,3.2c.393,1.061.645,2.164.963,3.246a118.958,118.958,0,0,1,2.879,13.18.421.421,0,0,1-.824.17l0-.013c-1.039-4.343-2.044-8.692-3.482-12.9-.651-2.126-1.48-4.184-2.252-6.26-.416-1.026-.89-2.025-1.33-3.038-.233-.5-.429-1.02-.692-1.5l-.768-1.464a49.656,49.656,0,0,0-7.456-10.776,38.265,38.265,0,0,0-10.31-7.876l-2.948-1.4-3.054-1.169-3.136-.955c-.521-.148-1.034-.246-1.551-.373s-1.048-.171-1.571-.261a26.369,26.369,0,0,0-6.407-.014,36.589,36.589,0,0,0-6.369,1.3,60.793,60.793,0,0,0-12.107,5.178,85.227,85.227,0,0,0-11.115,7.3l-.011.009a.437.437,0,0,1-.569-.663Z" transform="translate(-259.448 -1021.949)" fill="#dce5fe"/>
      </g>
      <g id="Group_12" data-name="Group 12" transform="translate(208.241 0)">
        <g id="Group_10" data-name="Group 10" transform="translate(0)">
          <circle id="Ellipse_1" data-name="Ellipse 1" cx="138.57" cy="138.57" r="138.57" transform="translate(0 195.968) rotate(-45)" fill="#91b3fa"/>
          <g id="Group_7" data-name="Group 7" transform="translate(74.616 74.616)">
            <circle id="Ellipse_2" data-name="Ellipse 2" cx="118.264" cy="118.264" r="118.264" transform="translate(3.087 3.087)" fill="url(#linear-gradient)"/>
            <path id="Path_14" data-name="Path 14" d="M1256.063,590.2a121.352,121.352,0,1,1,85.809-35.543A120.558,120.558,0,0,1,1256.063,590.2Zm0-236.529A115.177,115.177,0,1,0,1371.24,468.849,115.307,115.307,0,0,0,1256.063,353.672Z" transform="translate(-1134.711 -347.497)" fill="url(#linear-gradient-2)"/>
          </g>
          <g id="Group_8" data-name="Group 8" transform="translate(94.004 94.004)">
            <circle id="Ellipse_3" data-name="Ellipse 3" cx="72.1" cy="72.1" r="72.1" transform="translate(0 101.964) rotate(-45)" fill="url(#linear-gradient-3)"/>
            <path id="Path_15" data-name="Path 15" d="M1374.78,662.752a75.187,75.187,0,1,1,75.187-75.187A75.272,75.272,0,0,1,1374.78,662.752Zm0-144.2a69.012,69.012,0,1,0,69.012,69.013A69.091,69.091,0,0,0,1374.78,518.553Z" transform="translate(-1272.815 -485.601)" fill="url(#linear-gradient-2)"/>
          </g>
          <g id="Group_9" data-name="Group 9" transform="translate(160.194 160.194)">
            <circle id="Ellipse_4" data-name="Ellipse 4" cx="27.933" cy="27.933" r="27.933" transform="translate(0 52.53) rotate(-70.097)" fill="url(#linear-gradient-5)"/>
            <path id="Path_16" data-name="Path 16" d="M1488.358,732.164a31.021,31.021,0,1,1,31.021-31.021A31.056,31.056,0,0,1,1488.358,732.164Zm0-55.867a24.846,24.846,0,1,0,24.846,24.847A24.875,24.875,0,0,0,1488.358,676.3Z" transform="translate(-1452.583 -665.369)" fill="url(#linear-gradient-2)"/>
          </g>
        </g>
        <g id="Group_11" data-name="Group 11" transform="translate(195.393 8.6)">
          <rect id="Rectangle_2" data-name="Rectangle 2" width="5.282" height="200" transform="matrix(-0.707, -0.707, 0.707, -0.707, 30.878, 164.102)" fill="url(#linear-gradient-7)"/>
          <path id="Path_17" data-name="Path 17" d="M1595.864,651.529c2.142-2.142,12.243,7.958,10.1,10.1L1568.5,691.081a1.488,1.488,0,0,1-2.089-2.089Z" transform="translate(-1566.077 -500.174)" fill="url(#linear-gradient-8)"/>
          <path id="Path_18" data-name="Path 18" d="M2079.233,193l19.026,1.891-26.119,26.118a40.378,40.378,0,0,1-32.545,11.628h0Z" transform="translate(-1907.016 -170.243)" fill="url(#linear-gradient-9)"/>
          <path id="Path_19" data-name="Path 19" d="M2065.384,130.739l-1.891-19.026-26.119,26.118a40.379,40.379,0,0,0-11.628,32.545h0Z" transform="translate(-1896.902 -111.713)" fill="url(#linear-gradient-10)"/>
        </g>
      </g>
      <path id="Rectangle_3" data-name="Rectangle 3" d="M40.424,0H74.589a40.424,40.424,0,0,1,40.424,40.424V242.806a0,0,0,0,1,0,0H0a0,0,0,0,1,0,0V40.424A40.424,40.424,0,0,1,40.424,0Z" transform="translate(205.27 155.351)" fill="url(#linear-gradient-11)"/>
      <path id="Rectangle_4" data-name="Rectangle 4" d="M40.424,0H59.815a40.424,40.424,0,0,1,40.424,40.424V167.469a0,0,0,0,1,0,0H0a0,0,0,0,1,0,0V40.424A40.424,40.424,0,0,1,40.424,0Z" transform="translate(149.128 230.688)" fill="url(#linear-gradient-12)"/>
      <g id="Group_13" data-name="Group 13" transform="translate(164.918 298.684)">
        <path id="Path_20" data-name="Path 20" d="M814.211,1149.1a1.061,1.061,0,0,0-1.818-.963c-7.094,7.957-26.35,28.238-44.171,35.283-29.016,11.473-58.026,38.953-54.437,62.285C713.785,1245.7,785.379,1265.722,814.211,1149.1Z" transform="translate(-713.483 -1147.775)" fill="#bdd0fb"/>
        <path id="Path_21" data-name="Path 21" d="M830.755,1195.383c-.179.31-.338.53-.5.784l-.5.733-1.013,1.452c-.683.962-1.381,1.913-2.08,2.863q-2.1,2.845-4.274,5.641c-2.9,3.723-5.9,7.36-8.961,10.956s-6.21,7.11-9.447,10.546-6.526,6.826-9.924,10.107a222.326,222.326,0,0,1-21.532,18.422c-3.824,2.782-7.722,5.465-11.768,7.917a119.425,119.425,0,0,1-12.56,6.568.281.281,0,0,1-.37-.143.284.284,0,0,1,.131-.365,152.556,152.556,0,0,0,23.66-15.181c3.726-2.85,7.346-5.838,10.892-8.913s6.959-6.3,10.37-9.527c6.793-6.487,13.217-13.355,19.486-20.359q4.688-5.266,9.172-10.714,2.253-2.713,4.451-5.473l2.173-2.778,1.074-1.4.529-.7.488-.678.042-.06a.277.277,0,0,1,.464.3Z" transform="translate(-738.192 -1181.754)" fill="#dce5fe"/>
      </g>
      <g id="Group_14" data-name="Group 14" transform="translate(160.481 278.292)">
        <path id="Path_22" data-name="Path 22" d="M757.725,1075.79a.872.872,0,0,0-1.653-.358c-3.849,7.874-14.59,28.2-27.133,37.738-20.423,15.524-37.286,43.719-29.264,61.392C699.675,1174.562,760.8,1174.516,757.725,1075.79Z" transform="translate(-697.636 -1074.945)" fill="#91b3fa"/>
        <path id="Path_23" data-name="Path 23" d="M773.2,1118.385c-.074.3-.149.5-.223.742l-.229.693-.473,1.378c-.323.916-.662,1.824-1,2.734q-1.025,2.724-2.111,5.424c-1.457,3.6-3.024,7.147-4.638,10.678s-3.326,7.017-5.124,10.458-3.647,6.859-5.608,10.215a180.779,180.779,0,0,1-12.978,19.369c-2.42,3.048-4.92,6.033-7.588,8.868a96.588,96.588,0,0,1-8.528,7.957.28.28,0,0,1-.395-.041.284.284,0,0,1,.028-.384,127.794,127.794,0,0,0,15.285-17.314c2.309-3.085,4.509-6.252,6.628-9.473s4.1-6.533,6.085-9.84c3.943-6.635,7.5-13.5,10.922-20.421,1.7-3.468,3.329-6.974,4.906-10.5q1.191-2.643,2.328-5.31l1.114-2.676.547-1.341.265-.672.237-.636.025-.069a.277.277,0,0,1,.528.164Z" transform="translate(-716.793 -1105.975)" fill="#dce5fe"/>
      </g>
      <path id="Rectangle_5" data-name="Rectangle 5" d="M40.424,0H45.95A40.424,40.424,0,0,1,86.374,40.424v77.86a0,0,0,0,1,0,0H0a0,0,0,0,1,0,0V40.424A40.424,40.424,0,0,1,40.424,0Z" transform="translate(92.53 279.633)" fill="url(#linear-gradient-13)"/>
      <path id="Rectangle_6" data-name="Rectangle 6" d="M40.424,0H45.95A40.424,40.424,0,0,1,86.374,40.424V58.782a0,0,0,0,1,0,0H0a0,0,0,0,1,0,0V40.424A40.424,40.424,0,0,1,40.424,0Z" transform="translate(29.001 339.135)" fill="url(#linear-gradient-14)"/>
      <g id="Group_15" data-name="Group 15" transform="translate(291.023 126.477)">
        <path id="Path_24" data-name="Path 24" d="M1181.564,812.793a2.209,2.209,0,0,0,2.208-2.209v-264a2.209,2.209,0,0,0-4.417,0v264A2.209,2.209,0,0,0,1181.564,812.793Z" transform="translate(-1175.022 -541.113)" fill="url(#linear-gradient-15)"/>
        <path id="Path_25" data-name="Path 25" d="M1395.335,812.793a2.209,2.209,0,0,0,2.209-2.209v-264a2.209,2.209,0,0,0-4.417,0v264A2.209,2.209,0,0,0,1395.335,812.793Z" transform="translate(-1328.94 -541.113)" fill="url(#linear-gradient-16)"/>
        <path id="Path_26" data-name="Path 26" d="M1630.095,808.485a2.21,2.21,0,0,0,2.032-3.074L1519.182,539.737a2.209,2.209,0,0,0-4.065,1.729L1628.061,807.14A2.21,2.21,0,0,0,1630.095,808.485Z" transform="translate(-1416.647 -536.806)" fill="url(#linear-gradient-17)"/>
        <path id="Path_27" data-name="Path 27" d="M1380.924,808.485a2.21,2.21,0,0,0,2.032-3.074L1270.011,539.737a2.209,2.209,0,1,0-4.065,1.729L1378.89,807.14A2.209,2.209,0,0,0,1380.924,808.485Z" transform="translate(-1237.241 -536.806)" fill="url(#linear-gradient-18)"/>
        <path id="Path_28" data-name="Path 28" d="M1166.991,538.95h103.46a3.113,3.113,0,0,0,3.113-3.113h0a3.113,3.113,0,0,0-3.113-3.113h-103.46a3.113,3.113,0,0,0-3.113,3.113h0A3.113,3.113,0,0,0,1166.991,538.95Z" transform="translate(-1163.878 -532.724)" fill="url(#linear-gradient-19)"/>
        <path id="Path_29" data-name="Path 29" d="M1328.922,687.9h69.971a2.209,2.209,0,0,0,0-4.417h-69.971a2.209,2.209,0,0,0,0,4.417Z" transform="translate(-1281.122 -641.274)" fill="url(#linear-gradient-20)"/>
        <rect id="Rectangle_7" data-name="Rectangle 7" width="69.971" height="4.417" transform="translate(69.27 92.457)" fill="url(#linear-gradient-21)"/>
        <rect id="Rectangle_8" data-name="Rectangle 8" width="69.971" height="4.417" transform="translate(90.055 142.703)" fill="url(#linear-gradient-22)"/>
        <path id="Path_30" data-name="Path 30" d="M1557.685,1226.275h69.971a2.208,2.208,0,1,0,0-4.417h-69.971a2.208,2.208,0,0,0,0,4.417Z" transform="translate(-1445.834 -1028.909)" fill="url(#linear-gradient-23)"/>
        <path id="Path_31" data-name="Path 31" d="M1632.95,1405.736h69.971a2.209,2.209,0,0,0,0-4.417H1632.95a2.209,2.209,0,0,0,0,4.417Z" transform="translate(-1500.026 -1158.124)" fill="url(#linear-gradient-24)"/>
      </g>
      <g id="Group_19" data-name="Group 19" transform="translate(120.043 155.343)">
        <path id="Path_32" data-name="Path 32" d="M559.8,886.956c.045-.017,24.359-42.6,27.644-46.6a2.547,2.547,0,0,1,2.274-.914l6.786.809,7.972,17.248-13.282-7.735c1.314,9.089-15.748,22.6-21.6,27.526a1.344,1.344,0,0,0-.106,1.958l2.336,2.445a26.83,26.83,0,0,1-13.256,7.538Z" transform="translate(-557.065 -782.415)" fill="url(#linear-gradient-25)"/>
        <path id="Path_33" data-name="Path 33" d="M566.612,985.672a3.441,3.441,0,0,1,2,1.81,1.519,1.519,0,0,1-.571,1.751c-2.455,1.759-10.554,7.438-14.291,8.55a.423.423,0,0,1-.529-.5,13.461,13.461,0,0,1,2.811-5.14l-.18.363a.519.519,0,0,0,.719.685C559.066,991.781,564.158,988.693,566.612,985.672Z" transform="translate(-553.207 -887.718)" fill="url(#linear-gradient-26)"/>
        <path id="Path_34" data-name="Path 34" d="M594.868,909.789c.041-.026,3.688-8.815,3.729-8.841a154.752,154.752,0,0,1,13.911-42.392,2.547,2.547,0,0,1,2.042-1.355l6.809-.582,11.3,15.277-14.573-4.887c3.127,8.635-10.849,25.317-15.582,31.328a1.344,1.344,0,0,0,.292,1.938l2.783,1.922a26.828,26.828,0,0,1-11.456,10.065Z" transform="translate(-582.666 -794.798)" fill="url(#linear-gradient-27)"/>
        <path id="Path_35" data-name="Path 35" d="M601.669,1015.768a3.44,3.44,0,0,1,2.321,1.368,1.518,1.518,0,0,1-.205,1.83c-2.048,2.219-8.83,9.42-12.265,11.265a.422.422,0,0,1-.618-.381,13.464,13.464,0,0,1,1.712-5.6l-.1.392a.52.52,0,0,0,.843.525C595.515,1023.278,599.877,1019.223,601.669,1015.768Z" transform="translate(-580.347 -909.388)" fill="url(#linear-gradient-28)"/>
        <g id="Group_16" data-name="Group 16" transform="translate(27.23 58.333)">
          <path id="Path_36" data-name="Path 36" d="M693.8,844.434s6.16,9.162,6.666,13.342-1.7,5.625-8.151,6.158c-19.187,1.586-28.645-4.164-28.645-4.164-1.312-8.369-2.246-10.5-13.208-15.047,0,0,13.865,1.1,16.655.018S693.8,844.434,693.8,844.434Z" transform="translate(-650.46 -844.164)" fill="url(#linear-gradient-29)"/>
        </g>
        <g id="Group_17" data-name="Group 17" transform="translate(35.56)">
          <path id="Path_37" data-name="Path 37" d="M713.014,755.386a140.634,140.634,0,0,1-10.7-11.355,9.6,9.6,0,0,1-1.625-8.639c1.612-5.431,4.477-11.057,4.738-11.932.4-1.342,8.444-1.286,8.444-1.286s15.828,10.272,22.047,27.673l-6.984,2.174a81.6,81.6,0,0,0-8.216-11.341s7.065,9.334,7.314,13.155Z" transform="translate(-694.665 -697.996)" fill="url(#linear-gradient-30)"/>
          <path id="Path_38" data-name="Path 38" d="M715.159,692.015c.084.279,2.183,7.239,2.348,7.383s4.6.383,6.694-1.045l-4.265-9.436Z" transform="translate(-705.374 -674.052)" fill="url(#linear-gradient-31)"/>
          <path id="Path_39" data-name="Path 39" d="M693.012,667.424s-1.495,3.452.261,8.7,4.626,5.7,6.443,4.407a10.348,10.348,0,0,0,4.467-8.371C704.477,667.407,695.071,663.058,693.012,667.424Z" transform="translate(-689.001 -657.278)" fill="url(#linear-gradient-32)"/>
          <path id="Path_40" data-name="Path 40" d="M691.848,658.253s-3.172-7.1-7.928-2.679l-.367,1.829s-4.53-1.29-3.041-5.4a8.32,8.32,0,0,1,11.747-4.229c4.845,2.66,6.492,5.794,6.231,9.531s-3.061,2.458-3.061,2.458-.539-2.747-1.854-3.235-1.288,1.591-1.288,1.591Z" transform="translate(-680.212 -643.679)" fill="url(#linear-gradient-33)"/>
          <path id="Path_41" data-name="Path 41" d="M723.1,684.046s-1.652-3.642.662-3.774,1.372,3.511.911,4.84Z" transform="translate(-710.681 -667.824)" fill="url(#linear-gradient-34)"/>
          <path id="Path_42" data-name="Path 42" d="M696.932,829.246l5.39-5.864,6.225,1.676s7.257,1.124,11.411,0l4.154-1.124,9.386-2.923,1.474,4.167a2.508,2.508,0,0,1-.916,2.882,16.523,16.523,0,0,1-2.371,1.477c-1.236.541-28.475.171-28.475.171Z" transform="translate(-692.251 -769.16)" fill="url(#linear-gradient-35)"/>
          <path id="Path_43" data-name="Path 43" d="M726.826,642.555a1.625,1.625,0,0,1-.936-2.722c2.846-3.109,8.217-6.559,15.869-1.266,8.621,5.963,13.284,8.661,15.4,8.1a1.633,1.633,0,0,1,1.943,2.285,6.93,6.93,0,0,1-3.3,2.838C741.712,658.737,734.429,643.48,726.826,642.555Z" transform="translate(-712.786 -635.821)" fill="url(#linear-gradient-36)"/>
        </g>
        <g id="Group_18" data-name="Group 18" transform="translate(9.296 39.897)">
          <path id="Path_44" data-name="Path 44" d="M693.9,852.939h-.057l-24.792-.027a1.11,1.11,0,1,1,0-2.219l24.792.027a1.11,1.11,0,0,1,.055,2.218Z" transform="translate(-645.117 -830.429)" fill="url(#linear-gradient-37)"/>
          <path id="Path_45" data-name="Path 45" d="M588.06,778.317h20.647a3.936,3.936,0,0,1,3.56,2.257l9.545,20.24H596.152a2.391,2.391,0,0,1-2.224-1.513l-7.4-18.729A1.649,1.649,0,0,1,588.06,778.317Z" transform="translate(-586.409 -778.317)" fill="url(#linear-gradient-38)"/>
          <path id="Path_46" data-name="Path 46" d="M635.78,810.064c.447,1.39.117,2.74-.738,3.015s-1.911-.629-2.359-2.019-.117-2.74.738-3.015S635.333,808.674,635.78,810.064Z" transform="translate(-619.583 -799.686)" fill="#91b3fa"/>
        </g>
      </g>
      <g id="Group_22" data-name="Group 22" transform="translate(469.188 241.898)">
        <path id="Path_47" data-name="Path 47" d="M1943.615,1476.214c-3.92.18-7.715.067-10.248-.063,2.307-1.642,7.621-5.214,12.068-6.636l3.053-.183a12.435,12.435,0,0,1,1.4,5.173C1949.385,1475.137,1947.906,1476.017,1943.615,1476.214Z" transform="translate(-1896.085 -1322.514)" fill="url(#linear-gradient-39)"/>
        <path id="Path_48" data-name="Path 48" d="M1932.674,1489.477l.031-.022c2.533.13,6.328.244,10.248.063,4.291-.2,5.77-1.078,6.276-1.709.017.166.034.331.048.505a1.429,1.429,0,0,1-1.313,1.543c-3.211.243-11.171.792-15.01.591A.536.536,0,0,1,1932.674,1489.477Z" transform="translate(-1895.423 -1335.818)" fill="url(#linear-gradient-40)"/>
        <path id="Path_49" data-name="Path 49" d="M2070.064,1475.622a29.657,29.657,0,0,1,1.1-5.181c.558-1.067,2.468,0,2.468,0a5.071,5.071,0,0,1,1.958,1.667c.394.664,1.481,2.555,2.219,3.838a.867.867,0,0,1,.116.458l-7.649.268A1.529,1.529,0,0,1,2070.064,1475.622Z" transform="translate(-1994.495 -1322.971)" fill="url(#linear-gradient-41)"/>
        <path id="Path_50" data-name="Path 50" d="M2078.53,1492.957a.871.871,0,0,1-.848.846l-5.449.15a1.539,1.539,0,0,1-1.352-.729Z" transform="translate(-1995.097 -1339.524)" fill="url(#linear-gradient-42)"/>
        <path id="Path_51" data-name="Path 51" d="M2068.026,1447.357c.065.221,1.054,5.012,1.487,7.115a1.2,1.2,0,0,0,1.236.96c.324-.016.7-.045,1.1-.1a1.45,1.45,0,0,0,1.261-1.382c.07-1.842.1-5.378-.572-6.749C2071.6,1445.314,2068.026,1447.357,2068.026,1447.357Z" transform="translate(-1993.041 -1306.004)" fill="url(#linear-gradient-43)"/>
        <path id="Path_52" data-name="Path 52" d="M1978.555,1450.792c-.424-.013.169,2.189-.472,4.353a1.112,1.112,0,0,1-1.019.878c-.33,0-.721,0-1.118-.034a1.229,1.229,0,0,1-1.132-1.107l-.521-5.614Z" transform="translate(-1925.551 -1308.068)" fill="url(#linear-gradient-44)"/>
        <path id="Path_53" data-name="Path 53" d="M1947.168,1234.555c.189.921,6.868,39.874,7.273,60.03a.687.687,0,0,0,.591.668,13.471,13.471,0,0,0,4.1-.027.484.484,0,0,0,.4-.444c.233-3.756,2.11-35.515-.188-50.465,0,0,18.989,39.964,21.867,50.984a.579.579,0,0,0,.593.434,14.332,14.332,0,0,0,3.847-.683,1.006,1.006,0,0,0,.634-1.181c-1.608-6.595-12.878-52.031-20.531-62.042Z" transform="translate(-1906.021 -1151.509)" fill="url(#linear-gradient-45)"/>
        <path id="Path_54" data-name="Path 54" d="M1983.464,1269.357a.249.249,0,0,0,.178-.424l-2.542-2.6a.249.249,0,1,0-.356.349l2.542,2.6A.248.248,0,0,0,1983.464,1269.357Z" transform="translate(-1930.145 -1176.298)" fill="url(#linear-gradient-46)"/>
        <path id="Path_55" data-name="Path 55" d="M1831.317,1056.952a24.106,24.106,0,0,0,12.628.03c5.557-1.457,16.512-3.867,23.971-2.524l.62,19.515-25.5,2.914-.229-5.181s-15.5-2.237-23.887-12.43a41.506,41.506,0,0,0,4.685-6.348A20.054,20.054,0,0,0,1831.317,1056.952Z" transform="translate(-1813.681 -1022.698)" fill="url(#linear-gradient-47)"/>
        <path id="Path_56" data-name="Path 56" d="M1800.945,996.387l1.967-.864s-.1,9.822,7.221,16.073a41.518,41.518,0,0,1-4.685,6.348C1801.315,1012.92,1798.911,1005.963,1800.945,996.387Z" transform="translate(-1800.209 -981.366)" fill="url(#linear-gradient-48)"/>
        <path id="Path_57" data-name="Path 57" d="M1931.436,1019.658s1.48,8.833,1.679,11.608c0,0-7.149,1.974-9.015.916l.234-10.684Z" transform="translate(-1889.412 -998.743)" fill="url(#linear-gradient-49)"/>
        <g id="Group_20" data-name="Group 20" transform="translate(12.435 40.042)">
          <path id="Path_58" data-name="Path 58" d="M1846.019,1104.216a1.312,1.312,0,0,0-1.381,1.515l5.811,36.5a1.311,1.311,0,0,0,1.241,1.1l58.14,2.43a1.312,1.312,0,0,0,1.366-1.256l1.444-34.672a1.311,1.311,0,0,0-1.225-1.364Z" transform="translate(-1844.622 -1099.665)" fill="#7d97f4"/>
          <path id="Path_59" data-name="Path 59" d="M1862.347,1095.252a1.373,1.373,0,0,0-1.495,1.409l1.183,39.585a1.373,1.373,0,0,0,1.315,1.331l57.965,2.423a1.373,1.373,0,0,0,1.422-1.221l4.023-36.372a1.373,1.373,0,0,0-1.243-1.519Z" transform="translate(-1856.307 -1093.209)" fill="url(#linear-gradient-2)"/>
          <path id="Path_60" data-name="Path 60" d="M1871.7,1088a1.7,1.7,0,0,0-1.98,1.511l-3.917,41a1.7,1.7,0,0,0,1.619,1.857l57.087,2.386a1.7,1.7,0,0,0,1.764-1.576l2.384-33.735a1.7,1.7,0,0,0-1.4-1.792Z" transform="translate(-1859.868 -1087.97)" fill="url(#linear-gradient-51)"/>
        </g>
        <path id="Path_61" data-name="Path 61" d="M1971.564,1068.925l6.258-10.532s13.085,11.209,17.042,26.8l-6.94,4.36C1985.077,1084.466,1980.115,1077.694,1971.564,1068.925Z" transform="translate(-1923.587 -1026.633)" fill="url(#linear-gradient-52)"/>
        <path id="Path_62" data-name="Path 62" d="M2016.382,1181.6a1.7,1.7,0,0,0,1.509-.988,42.717,42.717,0,0,1,2.833-5.429,3.545,3.545,0,0,0-2.225-.062c-1.423.332-2.627-.249-2.669-1.038l6.651-2.851c.24-.679,1.206-4.489-3.426-12.763l6.94-4.361a33.183,33.183,0,0,1-.557,18.992s-1.309,7.618-3.958,9.158-6.679-.625-6.679-.625Z" transform="translate(-1954.718 -1095.549)" fill="url(#linear-gradient-53)"/>
        <g id="Group_21" data-name="Group 21" transform="translate(30.912 6.812)">
          <path id="Path_63" data-name="Path 63" d="M1914.705,990.581s-2.377,5.459-2.536,8.324-.777,4.725,2.536,5.3a7.043,7.043,0,0,0,7.615-3.928s2.369-4.4,1.838-6.2S1914.705,990.581,1914.705,990.581Z" transform="translate(-1911.626 -984.619)" fill="url(#linear-gradient-54)"/>
          <path id="Path_64" data-name="Path 64" d="M1920.178,982.894h-.419s1.726-3.54.209-4.161-7.522-1.847-8.818-3.978a3.963,3.963,0,0,1,1.532-5.451.223.223,0,0,1,.284.1l.138.261a.225.225,0,0,0,.415-.042h0a.224.224,0,0,1,.4-.062c.4.637,1.471,1.673,4.352,2.205,4.088.755,6.79,2.409,6.857,5.234a.225.225,0,0,0,.348.184c.3-.184.785-.27,1.43.272,1.123.944.663,3.392-1.8,5.406a.224.224,0,0,0,.01.361c.446.29,1.111.981-.612,1.9a4.6,4.6,0,0,1-3.2.739.225.225,0,0,1-.17-.233l.155-2.5a.225.225,0,0,0-.225-.239Z" transform="translate(-1910.616 -969.286)" fill="url(#linear-gradient-55)"/>
          <path id="Path_65" data-name="Path 65" d="M1944.4,1012.862s.907-3.487,2.47-2.51-.811,3.907-2.068,4.038Z" transform="translate(-1934.942 -998.73)" fill="url(#linear-gradient-56)"/>
        </g>
        <path id="Path_66" data-name="Path 66" d="M1803.164,960.86l2.993-5.8-3.846-10.1s-2.652,1.326-1.537,3.68-.135,5.011-.274,6S1799.105,960.764,1803.164,960.86Z" transform="translate(-1800.209 -944.958)" fill="url(#linear-gradient-57)"/>
      </g>
      <g id="Group_25" data-name="Group 25" transform="translate(255.119 14.494)">
        <g id="Group_23" data-name="Group 23" transform="translate(2.609 132.334)">
          <path id="Path_67" data-name="Path 67" d="M1056.7,614.18a1.031,1.031,0,0,0-.027-.266c-1.323-5.243-7.886-8.508-7.886-8.508l-1.681.132a1.365,1.365,0,0,0-1.2.981c-1.224,4.2-1,6.774-.765,7.905l.007.007A61.727,61.727,0,0,0,1056.7,614.18Z" transform="translate(-1044.958 -605.406)" fill="url(#linear-gradient-58)"/>
          <path id="Path_68" data-name="Path 68" d="M1045.64,636.993a1.129,1.129,0,0,0,.825.833c3.052.642,7.9.125,9.939-.141a.946.946,0,0,0,.785-.943A61.717,61.717,0,0,1,1045.64,636.993Z" transform="translate(-1045.449 -627.968)" fill="url(#linear-gradient-59)"/>
        </g>
        <path id="Path_69" data-name="Path 69" d="M1050.892,588.859l-1.351,6.265a1.024,1.024,0,0,0,.875.843,8.689,8.689,0,0,0,2.017-.032,1.288,1.288,0,0,0,1.02-1.513l1.748-5.563Z" transform="translate(-1045.649 -461.158)" fill="url(#linear-gradient-60)"/>
        <path id="Path_70" data-name="Path 70" d="M1205.618,535.88a13.9,13.9,0,0,1-4.584-.655c0,.255,0,.515.009.785a.507.507,0,0,0,.484.516l14.1-.091a.644.644,0,0,0,.518-.938C1214.3,535.649,1209.59,535.991,1205.618,535.88Z" transform="translate(-1154.726 -422.541)" fill="url(#linear-gradient-59)"/>
        <path id="Path_71" data-name="Path 71" d="M1216.152,518.476l.007-.016c-1.2-1.708-4.372-5.271-10.752-6.8l-2.343-.074a1.011,1.011,0,0,0-.968.632,16.2,16.2,0,0,0-1.061,5.987,13.892,13.892,0,0,0,4.584.655C1209.592,518.97,1214.3,518.628,1216.152,518.476Z" transform="translate(-1154.727 -405.52)" fill="url(#linear-gradient-62)"/>
        <path id="Path_72" data-name="Path 72" d="M1208.574,496.272c-.028.225-.551,3.616-.754,4.932a.654.654,0,0,0,.372.718,6.885,6.885,0,0,0,2,.527.89.89,0,0,0,.89-.677l1.444-5.15Z" transform="translate(-1159.606 -394.495)" fill="url(#linear-gradient-63)"/>
        <path id="Path_73" data-name="Path 73" d="M1066.353,371.336a33.554,33.554,0,0,0-4.491,12.349c-1.033,6.714-9.832,44.408-11.233,50.394a.836.836,0,0,0,.637,1.006,14.277,14.277,0,0,0,3.384.407,1.571,1.571,0,0,0,1.377-.951l20.991-48.61s13.959-2.689,19.085,3.368c3.075,3.635,1.052,10.034-1.684,19.085,0,0,3.368,1.684,5.613.561,0,0,10.465-16.356,6.175-26.382-1.986-4.641-10.56-9.216-19.085-10.1Z" transform="translate(-1046.417 -304.539)" fill="url(#linear-gradient-64)"/>
        <path id="Path_74" data-name="Path 74" d="M1106.845,255.857l5.052-44.906s21.892,0,35.925,7.859L1129.656,256.7a5.837,5.837,0,0,1-5.28,3.326A41.557,41.557,0,0,1,1106.845,255.857Z" transform="translate(-1086.909 -189.06)" fill="url(#linear-gradient-65)"/>
        <path id="Path_75" data-name="Path 75" d="M1254.467,195.915s-1.4,14.314-18.243,12.069c0,0-6.464,7.129-6.6,13.388,0,0,30.736,7.942,27.93-24.053Z" transform="translate(-1175.312 -178.234)" fill="url(#linear-gradient-66)"/>
        <path id="Path_76" data-name="Path 76" d="M1098.318,344.491s2.245-3.929,5.613-3.368,5.052,3.929,5.052,3.929l-5.613,2.807C1101.124,348.981,1097.2,347.859,1098.318,344.491Z" transform="translate(-1080.627 -282.746)" fill="url(#linear-gradient-67)"/>
        <path id="Path_77" data-name="Path 77" d="M1060.068,224.984s-28.627,12.91-6.735,25.821l.474,2.8s-17.408,2.526-18.156-17.676c-.562-15.156,24.979-24.979,24.979-24.979Z" transform="translate(-1035.641 -189.06)" fill="url(#linear-gradient-68)"/>
        <path id="Path_78" data-name="Path 78" d="M1178.008,182.629l-4.125,8.82s4.592,3.365,9.263,2.049l1.2-12.523Z" transform="translate(-1135.177 -167.477)" fill="url(#linear-gradient-69)"/>
        <g id="Group_24" data-name="Group 24" transform="translate(41.086 0.28)">
          <path id="Path_79" data-name="Path 79" d="M1203.727,150.443c.085.159,1.82,11.945,1.82,11.945l-6.751.848-3.3-10.927S1202.305,147.783,1203.727,150.443Z" transform="translate(-1191.822 -145.171)" fill="url(#linear-gradient-70)"/>
          <path id="Path_80" data-name="Path 80" d="M1188.542,142.014a.98.98,0,0,0-.2.837l1.271,5.8a.95.95,0,0,0,.092.251c.237.437,1.1,1.768,2.442.8a8.626,8.626,0,0,1,3.121-1.7.977.977,0,0,1,1.111.832,36.42,36.42,0,0,1,.4,5.369.972.972,0,0,1-.917.95,27.106,27.106,0,0,1-6.108-.25.978.978,0,0,1-.75-.667c-.478-1.514-1.835-5.753-2.4-6.89-.527-1.057-2.091-1.252-2.814-1.285a.982.982,0,0,1-.707-.346,2.153,2.153,0,0,1,.277-3.364.978.978,0,0,0,.137-1.356,2.162,2.162,0,0,1,.194-3.172,3.048,3.048,0,0,1,3.644-.478,1.015,1.015,0,0,0,1.2-.221.647.647,0,0,1,.6-.216.948.948,0,0,0,1.083-.811,2.5,2.5,0,0,1,2.24-2.272c2.969-.534,4.408,2.45,4.328,4.533s-3.333,2.479-5.169,2.109C1190.262,140.2,1189.076,141.372,1188.542,142.014Z" transform="translate(-1182.385 -133.766)" fill="url(#linear-gradient-71)"/>
          <path id="Path_81" data-name="Path 81" d="M1189.51,179.465s-.016-3.635-1.483-4-3.067.682-1.838,2.875C1187.719,181.07,1189.51,179.465,1189.51,179.465Z" transform="translate(-1184.809 -163.742)" fill="url(#linear-gradient-72)"/>
        </g>
        <path id="Path_82" data-name="Path 82" d="M1236.155,145.073l46.59-7.3-.561,14.594-46.029-3.929Z" transform="translate(-1180.014 -136.372)" fill="url(#linear-gradient-59)"/>
        <path id="Path_83" data-name="Path 83" d="M1396.567,133.654c-.247,2.889,0,11.985.131,14.982a1.013,1.013,0,0,0,1.014.967h.789a1.262,1.262,0,0,0,1.245-1.057,67.364,67.364,0,0,0,1.015-14.908.944.944,0,0,0-.947-.875h-2.272A.974.974,0,0,0,1396.567,133.654Z" transform="translate(-1295.436 -132.764)" fill="url(#linear-gradient-74)"/>
        <path id="Path_84" data-name="Path 84" d="M1234.237,160.831h-1.376a.465.465,0,0,0-.454.368,14.494,14.494,0,0,0,.041,4.283.461.461,0,0,0,.457.4h.873a.461.461,0,0,0,.458-.41l.459-4.13A.461.461,0,0,0,1234.237,160.831Z" transform="translate(-1177.207 -152.973)" fill="url(#linear-gradient-75)"/>
        <path id="Path_85" data-name="Path 85" d="M1318.353,177.149s.255-3.25.689-3.59,3.8-3.708,4.363-3.708,1.123,1.123,0,1.684a3.426,3.426,0,0,0-1.4,2.276l3.046.26s-2.206,4.2-3.328,4.761S1318.353,177.149,1318.353,177.149Z" transform="translate(-1239.197 -159.468)" fill="url(#linear-gradient-57)"/>
      </g>
      <g id="Group_26" data-name="Group 26" transform="translate(69.336 71.314)">
        <path id="Path_86" data-name="Path 86" d="M655.912,752.709l-1.43-.787-.045-.024a1.121,1.121,0,0,1,1.079-1.966l1.521.833a1.122,1.122,0,0,1-1.078,1.969h0Z" transform="translate(-574.968 -633.853)" fill="url(#linear-gradient-2)"/>
        <path id="Path_87" data-name="Path 87" d="M637.772,744.666l-1.534-.57-.045-.016a1.117,1.117,0,0,1,.777-2.095l1.624.6a1.118,1.118,0,0,1-.776,2.1h0Z" transform="translate(-561.727 -628.181)" fill="url(#linear-gradient-2)"/>
        <path id="Path_88" data-name="Path 88" d="M618.663,739.27l-1.6-.354-.043-.01a1.113,1.113,0,0,1,.479-2.173l1.688.37a1.114,1.114,0,1,1-.478,2.177h0Z" transform="translate(-547.816 -624.43)" fill="url(#linear-gradient-2)"/>
        <path id="Path_89" data-name="Path 89" d="M598.989,736.456l-1.636-.144-.042,0a1.109,1.109,0,0,1,.193-2.209l1.719.15a1.11,1.11,0,0,1-.192,2.212h0Z" transform="translate(-533.527 -622.549)" fill="url(#linear-gradient-2)"/>
        <path id="Path_90" data-name="Path 90" d="M579.111,735.961l-1.641.056h-.04a1.1,1.1,0,0,1-.076-2.208l1.72-.061a1.106,1.106,0,1,1,.078,2.211h-.041Z" transform="translate(-519.119 -622.3)" fill="url(#linear-gradient-2)"/>
        <path id="Path_91" data-name="Path 91" d="M559.319,737.469l-1.629.247-.037.006a1.1,1.1,0,0,1-.332-2.176l1.7-.261a1.1,1.1,0,1,1,.334,2.178h0Z" transform="translate(-504.789 -623.397)" fill="url(#linear-gradient-2)"/>
        <path id="Path_92" data-name="Path 92" d="M539.882,741.266l-1.589.432-.036.01a1.1,1.1,0,0,1-.577-2.115l1.661-.454a1.1,1.1,0,0,1,.579,2.118h0Z" transform="translate(-490.739 -626.153)" fill="url(#linear-gradient-2)"/>
        <path id="Path_93" data-name="Path 93" d="M521.055,747.278l-1.528.612-.036.014a1.092,1.092,0,0,1-.813-2.027l1.6-.643a1.093,1.093,0,1,1,.816,2.029h0Z" transform="translate(-477.145 -630.513)" fill="url(#linear-gradient-2)"/>
        <path id="Path_94" data-name="Path 94" d="M503.084,755.416l-1.456.776-.03.016a1.088,1.088,0,0,1-1.024-1.92l1.515-.809a1.089,1.089,0,1,1,1.027,1.921h0Z" transform="translate(-464.188 -636.413)" fill="url(#linear-gradient-2)"/>
        <path id="Path_95" data-name="Path 95" d="M486.082,765.425l-1.373.919-.026.018a1.084,1.084,0,0,1-1.208-1.8l1.424-.957a1.085,1.085,0,0,1,1.21,1.8h0Z" transform="translate(-451.946 -643.664)" fill="url(#linear-gradient-2)"/>
        <path id="Path_96" data-name="Path 96" d="M470.159,777.085l-1.282,1.046-.023.019a1.08,1.08,0,0,1-1.366-1.672l1.326-1.085a1.081,1.081,0,1,1,1.369,1.673h0Z" transform="translate(-440.495 -652.109)" fill="url(#linear-gradient-2)"/>
        <path id="Path_97" data-name="Path 97" d="M455.377,790.188l-1.187,1.156-.019.019a1.076,1.076,0,0,1-1.5-1.54l1.224-1.2a1.077,1.077,0,0,1,1.5,1.541h0Z" transform="translate(-429.877 -661.593)" fill="url(#linear-gradient-2)"/>
        <path id="Path_98" data-name="Path 98" d="M441.771,804.538l-1.089,1.25-.017.019a1.071,1.071,0,0,1-1.617-1.406l1.121-1.291a1.073,1.073,0,0,1,1.62,1.407h0Z" transform="translate(-420.115 -671.976)" fill="url(#linear-gradient-2)"/>
        <path id="Path_99" data-name="Path 99" d="M429.352,819.967l-.991,1.334-.015.019a1.067,1.067,0,0,1-1.714-1.272l1.018-1.374a1.069,1.069,0,0,1,1.717,1.272h0Z" transform="translate(-411.213 -683.137)" fill="url(#linear-gradient-2)"/>
        <path id="Path_100" data-name="Path 100" d="M418.146,836.32l-.891,1.4-.012.019a1.063,1.063,0,0,1-1.8-1.138l.913-1.444a1.065,1.065,0,0,1,1.8,1.138h0Z" transform="translate(-403.191 -694.962)" fill="url(#linear-gradient-2)"/>
        <path id="Path_101" data-name="Path 101" d="M408.162,853.472l-.787,1.464-.011.021a1.059,1.059,0,0,1-1.866-1l.807-1.506a1.06,1.06,0,0,1,1.869,1h0Z" transform="translate(-396.056 -707.363)" fill="url(#linear-gradient-2)"/>
        <path id="Path_102" data-name="Path 102" d="M399.448,871.313l-.68,1.515-.009.02a1.055,1.055,0,0,1-1.925-.863l.7-1.557a1.056,1.056,0,0,1,1.928.863v0Z" transform="translate(-389.842 -720.262)" fill="url(#linear-gradient-2)"/>
        <path id="Path_103" data-name="Path 103" d="M392.019,889.74l-.573,1.559-.008.021a1.051,1.051,0,0,1-1.973-.724l.586-1.6a1.052,1.052,0,1,1,1.976.724h0Z" transform="translate(-384.556 -733.583)" fill="url(#linear-gradient-2)"/>
        <path id="Path_104" data-name="Path 104" d="M385.877,908.655l-.466,1.595-.006.02a1.047,1.047,0,0,1-2.01-.586l.476-1.636a1.048,1.048,0,1,1,2.013.585v0Z" transform="translate(-380.203 -747.254)" fill="url(#linear-gradient-2)"/>
        <path id="Path_105" data-name="Path 105" d="M381.028,927.955l-.359,1.623,0,.02a1.043,1.043,0,0,1-2.036-.449l.366-1.664a1.044,1.044,0,0,1,2.039.448h0Z" transform="translate(-376.783 -761.203)" fill="url(#linear-gradient-2)"/>
        <path id="Path_106" data-name="Path 106" d="M377.466,947.564l-.252,1.645,0,.02a1.038,1.038,0,0,1-2.053-.313l.256-1.685a1.04,1.04,0,0,1,2.056.312h0Z" transform="translate(-374.293 -775.374)" fill="url(#linear-gradient-2)"/>
        <path id="Path_107" data-name="Path 107" d="M375.189,967.393l-.145,1.658,0,.02a1.034,1.034,0,0,1-2.061-.179l.146-1.7a1.035,1.035,0,1,1,2.063.177h0Z" transform="translate(-372.732 -789.703)" fill="url(#linear-gradient-2)"/>
        <path id="Path_108" data-name="Path 108" d="M374.2,987.346l-.038,1.665v.02a1.03,1.03,0,0,1-2.06-.045l.036-1.706a1.031,1.031,0,1,1,2.062.044h0Z" transform="translate(-372.101 -804.12)" fill="url(#linear-gradient-99)"/>
        <path id="Path_109" data-name="Path 109" d="M374.306,1007.343l.069,1.665v.02a1.026,1.026,0,0,1-2.05.086l-.073-1.7a1.027,1.027,0,0,1,2.053-.088h0Z" transform="translate(-372.209 -818.569)" fill="url(#linear-gradient-2)"/>
        <path id="Path_110" data-name="Path 110" d="M375.6,1027.3l.176,1.656,0,.02a1.022,1.022,0,0,1-2.032.217l-.183-1.7a1.023,1.023,0,1,1,2.034-.219h0Z" transform="translate(-373.152 -832.988)" fill="url(#linear-gradient-2)"/>
        <path id="Path_111" data-name="Path 111" d="M378.187,1047.138l.283,1.641,0,.02a1.018,1.018,0,0,1-2.005.348l-.293-1.68a1.019,1.019,0,0,1,2.008-.35h0Z" transform="translate(-375.024 -847.322)" fill="url(#linear-gradient-2)"/>
        <path id="Path_112" data-name="Path 112" d="M382.057,1066.758l.39,1.617,0,.02a1.013,1.013,0,0,1-1.97.477l-.4-1.656a1.015,1.015,0,0,1,1.972-.479h0Z" transform="translate(-377.825 -861.499)" fill="url(#linear-gradient-2)"/>
        <path id="Path_113" data-name="Path 113" d="M387.215,1086.072l.5,1.587.006.019a1.009,1.009,0,0,1-1.926.605l-.512-1.625a1.011,1.011,0,1,1,1.928-.607h0Z" transform="translate(-381.556 -875.454)" fill="url(#linear-gradient-2)"/>
        <path id="Path_114" data-name="Path 114" d="M393.656,1104.985l.6,1.548.008.019a1.005,1.005,0,0,1-1.872.732l-.622-1.586a1.006,1.006,0,0,1,1.874-.734h0Z" transform="translate(-386.216 -889.12)" fill="url(#linear-gradient-2)"/>
        <path id="Path_115" data-name="Path 115" d="M401.381,1123.407l.711,1.5.009.019a1,1,0,0,1-1.809.857l-.731-1.539a1,1,0,1,1,1.811-.86h0Z" transform="translate(-391.802 -902.433)" fill="url(#linear-gradient-2)"/>
        <path id="Path_116" data-name="Path 116" d="M410.383,1141.243l.816,1.448.011.019a1,1,0,0,1-1.736.98l-.84-1.485a1,1,0,0,1,1.738-.983h0Z" transform="translate(-398.312 -915.323)" fill="url(#linear-gradient-2)"/>
        <path id="Path_117" data-name="Path 117" d="M420.647,1158.4l.919,1.386.012.018a.993.993,0,0,1-1.654,1.1l-.945-1.42a.994.994,0,1,1,1.655-1.1h0Z" transform="translate(-405.734 -927.718)" fill="url(#linear-gradient-2)"/>
        <path id="Path_118" data-name="Path 118" d="M432.111,1174.768l1.014,1.317.013.017a.989.989,0,0,1-1.566,1.207l-1.041-1.348a.99.99,0,0,1,1.567-1.21h0Z" transform="translate(-414.022 -939.551)" fill="url(#linear-gradient-2)"/>
        <path id="Path_119" data-name="Path 119" d="M444.692,1190.3l1.1,1.244.013.015a.984.984,0,0,1-1.473,1.306L443.2,1191.6a.986.986,0,0,1,1.474-1.31h0Z" transform="translate(-423.117 -950.775)" fill="url(#linear-gradient-2)"/>
        <path id="Path_120" data-name="Path 120" d="M458.3,1204.941l1.184,1.168.014.014a.98.98,0,0,1-1.376,1.4l-1.214-1.194a.982.982,0,1,1,1.376-1.4h0Z" transform="translate(-432.955 -961.352)" fill="url(#linear-gradient-2)"/>
        <path id="Path_121" data-name="Path 121" d="M472.862,1218.634l1.26,1.088.015.012a.976.976,0,0,1-1.275,1.479l-1.291-1.111a.977.977,0,1,1,1.275-1.481h0Z" transform="translate(-443.476 -971.244)" fill="url(#linear-gradient-2)"/>
        <path id="Path_122" data-name="Path 122" d="M488.3,1231.346l1.329,1,.015.011a.972.972,0,0,1-1.17,1.552l-1.361-1.024a.973.973,0,1,1,1.171-1.555h0Z" transform="translate(-454.631 -980.427)" fill="url(#linear-gradient-2)"/>
        <path id="Path_123" data-name="Path 123" d="M504.537,1243.035l1.392.917.016.01a.968.968,0,0,1-1.063,1.618l-1.425-.935a.969.969,0,0,1,1.063-1.62h0Z" transform="translate(-466.364 -988.871)" fill="url(#linear-gradient-2)"/>
        <path id="Path_124" data-name="Path 124" d="M521.491,1253.651l1.449.825.016.01a.963.963,0,0,1-.953,1.675l-1.482-.842a.965.965,0,0,1,.953-1.678h0Z" transform="translate(-478.613 -996.539)" fill="url(#linear-gradient-2)"/>
        <path id="Path_125" data-name="Path 125" d="M539.093,1263.158l1.5.73.017.008a.959.959,0,0,1-.84,1.725l-1.533-.744a.961.961,0,0,1,.84-1.729h0Z" transform="translate(-491.33 -1003.406)" fill="url(#linear-gradient-2)"/>
        <path id="Path_126" data-name="Path 126" d="M557.269,1271.513l1.542.632.017.007a.955.955,0,0,1-.723,1.769l-1.578-.644a.957.957,0,1,1,.723-1.771h0Z" transform="translate(-504.462 -1009.441)" fill="url(#linear-gradient-2)"/>
        <path id="Path_127" data-name="Path 127" d="M575.953,1278.674l1.579.53.018.006a.951.951,0,0,1-.6,1.8l-1.615-.539a.953.953,0,1,1,.6-1.807h0Z" transform="translate(-517.96 -1014.614)" fill="url(#linear-gradient-2)"/>
        <path id="Path_128" data-name="Path 128" d="M595.056,1284.593l1.61.424.018,0a.947.947,0,0,1-.481,1.832l-1.647-.431a.948.948,0,1,1,.48-1.835h0Z" transform="translate(-531.762 -1018.89)" fill="url(#linear-gradient-2)"/>
        <path id="Path_129" data-name="Path 129" d="M614.5,1289.225l1.634.314.019,0a.943.943,0,0,1-.355,1.852l-1.672-.319a.944.944,0,0,1,.354-1.855h0Z" transform="translate(-545.812 -1022.236)" fill="url(#linear-gradient-2)"/>
        <path id="Path_130" data-name="Path 130" d="M634.218,1292.527l1.651.2.019,0a.939.939,0,0,1-.225,1.864l-1.69-.2a.94.94,0,0,1,.224-1.867h0Z" transform="translate(-560.056 -1024.622)" fill="url(#linear-gradient-2)"/>
        <path id="Path_131" data-name="Path 131" d="M654.1,1294.453l1.661.084h.02a.935.935,0,0,1-.093,1.867l-1.7-.083a.936.936,0,1,1,.092-1.87h.021Z" transform="translate(-574.424 -1026.013)" fill="url(#linear-gradient-2)"/>
        <path id="Path_132" data-name="Path 132" d="M674.086,1294.873l1.662-.034h.018a.931.931,0,0,1,.039,1.861l-1.7.037a.932.932,0,0,1-.04-1.863h.02Z" transform="translate(-588.864 -1026.293)" fill="url(#linear-gradient-2)"/>
        <path id="Path_133" data-name="Path 133" d="M694.054,1293.729l1.66-.142.018,0a.926.926,0,0,1,.159,1.846l-1.695.147a.928.928,0,0,1-.16-1.849h.019Z" transform="translate(-603.287 -1025.388)" fill="url(#linear-gradient-2)"/>
        <path id="Path_134" data-name="Path 134" d="M713.935,1291.328l1.649-.244.016,0a.922.922,0,0,1,.272,1.824l-1.682.251a.924.924,0,0,1-.273-1.827h0Z" transform="translate(-617.647 -1023.58)" fill="url(#linear-gradient-2)"/>
        <path id="Path_135" data-name="Path 135" d="M733.652,1287.739l1.633-.34.015,0a.918.918,0,0,1,.376,1.8l-1.663.349a.919.919,0,0,1-.378-1.8h0Z" transform="translate(-631.885 -1020.919)" fill="url(#linear-gradient-2)"/>
        <path id="Path_136" data-name="Path 136" d="M753.149,1283.049l1.613-.429.014,0a.914.914,0,0,1,.472,1.766l-1.64.439a.915.915,0,1,1-.474-1.768h0Z" transform="translate(-645.961 -1017.47)" fill="url(#linear-gradient-2)"/>
        <path id="Path_137" data-name="Path 137" d="M772.385,1277.349l1.59-.511.013,0a.91.91,0,0,1,.557,1.732l-1.615.521a.911.911,0,0,1-.56-1.734h0Z" transform="translate(-659.846 -1013.298)" fill="url(#linear-gradient-2)"/>
        <path id="Path_138" data-name="Path 138" d="M791.334,1270.731l1.566-.584.011,0a.906.906,0,0,1,.634,1.7l-1.588.595a.907.907,0,0,1-.636-1.7h0Z" transform="translate(-673.521 -1008.47)" fill="url(#linear-gradient-2)"/>
        <path id="Path_139" data-name="Path 139" d="M809.979,1263.288l1.541-.65.01,0a.9.9,0,0,1,.7,1.661l-1.56.661a.9.9,0,1,1-.7-1.663h0Z" transform="translate(-686.974 -1003.054)" fill="url(#linear-gradient-2)"/>
        <path id="Path_140" data-name="Path 140" d="M828.317,1255.108l1.516-.709.009,0a.9.9,0,0,1,.762,1.625l-1.533.72a.9.9,0,1,1-.764-1.627h0Z" transform="translate(-700.203 -997.112)" fill="url(#linear-gradient-2)"/>
        <path id="Path_141" data-name="Path 141" d="M846.349,1246.274l1.492-.762.008,0a.893.893,0,0,1,.813,1.591l-1.506.772a.895.895,0,0,1-.815-1.593h0Z" transform="translate(-713.209 -990.704)" fill="url(#linear-gradient-2)"/>
        <path id="Path_142" data-name="Path 142" d="M864.087,1236.861l1.469-.808.007,0a.889.889,0,0,1,.858,1.557l-1.482.817a.89.89,0,1,1-.86-1.559h0Z" transform="translate(-726 -983.885)" fill="url(#linear-gradient-2)"/>
        <path id="Path_143" data-name="Path 143" d="M881.545,1226.941l1.447-.848.006,0a.885.885,0,0,1,.9,1.526l-1.458.857a.886.886,0,0,1-.9-1.528h0Z" transform="translate(-738.587 -976.705)" fill="url(#linear-gradient-2)"/>
        <path id="Path_144" data-name="Path 144" d="M898.74,1216.578l1.427-.883.005,0a.881.881,0,0,1,.929,1.5l-1.436.892a.882.882,0,0,1-.931-1.5h0Z" transform="translate(-750.984 -969.211)" fill="url(#linear-gradient-2)"/>
        <path id="Path_145" data-name="Path 145" d="M915.7,1205.831l1.409-.914,0,0a.877.877,0,0,1,.955,1.47l-1.416.921a.878.878,0,0,1-.958-1.472h0Z" transform="translate(-763.205 -961.445)" fill="url(#linear-gradient-2)"/>
        <path id="Path_146" data-name="Path 146" d="M932.435,1194.755l1.392-.939,0,0a.872.872,0,0,1,.977,1.446l-1.4.947a.874.874,0,0,1-.98-1.447h0Z" transform="translate(-775.269 -953.446)" fill="url(#linear-gradient-2)"/>
        <path id="Path_147" data-name="Path 147" d="M948.983,1183.4l1.38-.963,0,0a.868.868,0,0,1,.995,1.423l-1.385.969a.87.87,0,1,1-1-1.425h0Z" transform="translate(-787.194 -945.248)" fill="url(#linear-gradient-2)"/>
        <path id="Path_148" data-name="Path 148" d="M965.377,1171.818l1.367-.979a.864.864,0,1,1,1.009,1.4l-1.37.983a.865.865,0,0,1-1.009-1.406Z" transform="translate(-799.005 -936.895)" fill="url(#linear-gradient-2)"/>
        <path id="Path_149" data-name="Path 149" d="M981.637,1160.07l1.357-.992a.86.86,0,1,1,1.018,1.386l-1.36,1a.861.861,0,1,1-1.018-1.389Z" transform="translate(-810.719 -928.423)" fill="url(#linear-gradient-2)"/>
        <path id="Path_150" data-name="Path 150" d="M997.779,1148.165l1.348-1a.856.856,0,1,1,1.026,1.37l-1.35,1.01a.857.857,0,1,1-1.027-1.373Z" transform="translate(-822.347 -919.839)" fill="url(#linear-gradient-2)"/>
        <path id="Path_151" data-name="Path 151" d="M1013.8,1136.107l1.338-1.018a.852.852,0,1,1,1.034,1.354l-1.34,1.022a.853.853,0,0,1-1.035-1.356Z" transform="translate(-833.891 -911.145)" fill="url(#linear-gradient-2)"/>
        <path id="Path_152" data-name="Path 152" d="M1029.708,1123.9l1.328-1.03a.848.848,0,1,1,1.042,1.337l-1.33,1.035a.849.849,0,1,1-1.042-1.34Z" transform="translate(-845.349 -902.342)" fill="url(#linear-gradient-2)"/>
        <path id="Path_153" data-name="Path 153" d="M1045.5,1111.541l1.318-1.043a.844.844,0,1,1,1.05,1.321l-1.32,1.047a.845.845,0,0,1-1.05-1.323Z" transform="translate(-856.722 -893.433)" fill="url(#linear-gradient-2)"/>
        <path id="Path_154" data-name="Path 154" d="M1061.167,1099.037l1.308-1.055a.839.839,0,1,1,1.056,1.3l-1.31,1.06a.841.841,0,0,1-1.057-1.307Z" transform="translate(-868.011 -884.418)" fill="url(#linear-gradient-2)"/>
        <path id="Path_155" data-name="Path 155" d="M1076.722,1086.389l1.3-1.067a.835.835,0,1,1,1.063,1.289l-1.3,1.071a.836.836,0,1,1-1.064-1.291Z" transform="translate(-879.216 -875.3)" fill="url(#linear-gradient-2)"/>
        <path id="Path_156" data-name="Path 156" d="M1092.167,1073.593l1.289-1.079a.831.831,0,1,1,1.069,1.272l-1.291,1.083a.832.832,0,0,1-1.07-1.275Z" transform="translate(-890.342 -866.076)" fill="url(#linear-gradient-2)"/>
        <path id="Path_157" data-name="Path 157" d="M1107.494,1060.658l1.279-1.09a.827.827,0,1,1,1.075,1.256l-1.281,1.095a.828.828,0,1,1-1.076-1.259Z" transform="translate(-901.383 -856.751)" fill="url(#linear-gradient-2)"/>
        <path id="Path_158" data-name="Path 158" d="M1122.7,1047.592l1.269-1.1a.823.823,0,1,1,1.081,1.24l-1.271,1.106a.824.824,0,0,1-1.082-1.243Z" transform="translate(-912.335 -847.333)" fill="url(#linear-gradient-2)"/>
        <path id="Path_159" data-name="Path 159" d="M1137.787,1034.392l1.26-1.113a.819.819,0,1,1,1.086,1.225l-1.261,1.118a.82.82,0,0,1-1.088-1.227Z" transform="translate(-923.204 -837.818)" fill="url(#linear-gradient-2)"/>
        <path id="Path_160" data-name="Path 160" d="M1152.759,1021.059l1.25-1.124a.814.814,0,1,1,1.092,1.209l-1.251,1.128a.816.816,0,0,1-1.093-1.212Z" transform="translate(-933.989 -828.208)" fill="url(#linear-gradient-2)"/>
        <path id="Path_161" data-name="Path 161" d="M1167.616,1007.6l1.24-1.135a.81.81,0,1,1,1.1,1.193l-1.242,1.139a.812.812,0,0,1-1.1-1.2Z" transform="translate(-944.691 -818.504)" fill="url(#linear-gradient-2)"/>
        <path id="Path_162" data-name="Path 162" d="M1182.357,994.007l1.23-1.146a.806.806,0,1,1,1.1,1.178l-1.232,1.15a.807.807,0,1,1-1.1-1.18Z" transform="translate(-955.309 -808.709)" fill="url(#linear-gradient-2)"/>
        <path id="Path_163" data-name="Path 163" d="M1196.984,980.291l1.221-1.156a.8.8,0,1,1,1.105,1.163l-1.222,1.16a.8.8,0,1,1-1.106-1.165Z" transform="translate(-965.846 -798.823)" fill="url(#linear-gradient-2)"/>
        <path id="Path_164" data-name="Path 164" d="M1211.5,966.453l1.211-1.166a.8.8,0,1,1,1.109,1.147L1212.6,967.6a.8.8,0,0,1-1.11-1.15Z" transform="translate(-976.299 -788.849)" fill="url(#linear-gradient-2)"/>
        <path id="Path_165" data-name="Path 165" d="M1225.894,952.493l1.2-1.176a.794.794,0,1,1,1.112,1.132l-1.2,1.181a.8.8,0,0,1-1.114-1.135Z" transform="translate(-986.67 -778.789)" fill="url(#linear-gradient-2)"/>
        <path id="Path_166" data-name="Path 166" d="M1240.177,938.416l1.192-1.186a.789.789,0,1,1,1.116,1.117l-1.193,1.191a.791.791,0,1,1-1.117-1.119Z" transform="translate(-996.958 -768.643)" fill="url(#linear-gradient-2)"/>
        <path id="Path_167" data-name="Path 167" d="M1254.348,924.221l1.183-1.2a.785.785,0,1,1,1.119,1.1l-1.184,1.2a.786.786,0,0,1-1.12-1.1Z" transform="translate(-1007.166 -758.414)" fill="url(#linear-gradient-2)"/>
        <path id="Path_168" data-name="Path 168" d="M1268.4,909.913l1.173-1.205a.781.781,0,1,1,1.121,1.088l-1.174,1.21a.783.783,0,0,1-1.123-1.09Z" transform="translate(-1017.29 -748.103)" fill="url(#linear-gradient-2)"/>
        <path id="Path_169" data-name="Path 169" d="M1282.347,895.493l1.164-1.215a.777.777,0,1,1,1.124,1.073l-1.164,1.219a.778.778,0,0,1-1.126-1.076Z" transform="translate(-1027.333 -737.711)" fill="url(#linear-gradient-2)"/>
        <path id="Path_170" data-name="Path 170" d="M1296.178,880.964l1.155-1.224a.773.773,0,1,1,1.126,1.059l-1.156,1.228a.774.774,0,0,1-1.128-1.061Z" transform="translate(-1037.296 -727.241)" fill="url(#linear-gradient-2)"/>
        <path id="Path_171" data-name="Path 171" d="M1309.9,866.328l1.145-1.233a.769.769,0,1,1,1.129,1.044l-1.146,1.237a.77.77,0,1,1-1.13-1.047Z" transform="translate(-1047.177 -716.694)" fill="url(#linear-gradient-2)"/>
        <path id="Path_172" data-name="Path 172" d="M1323.5,851.586l1.136-1.241a.765.765,0,1,1,1.13,1.03l-1.136,1.246a.766.766,0,0,1-1.132-1.032Z" transform="translate(-1056.978 -706.071)" fill="url(#linear-gradient-2)"/>
        <path id="Path_173" data-name="Path 173" d="M1337,836.741l1.127-1.25a.76.76,0,1,1,1.132,1.016l-1.127,1.254a.762.762,0,1,1-1.133-1.018Z" transform="translate(-1066.698 -695.375)" fill="url(#linear-gradient-2)"/>
        <path id="Path_174" data-name="Path 174" d="M1350.383,821.8l1.117-1.258a.756.756,0,1,1,1.133,1l-1.117,1.263a.758.758,0,0,1-1.135-1Z" transform="translate(-1076.338 -684.605)" fill="url(#linear-gradient-2)"/>
        <path id="Path_175" data-name="Path 175" d="M1363.655,806.752l1.108-1.267a.752.752,0,1,1,1.134.988l-1.108,1.271a.753.753,0,0,1-1.136-.99Z" transform="translate(-1085.898 -673.766)" fill="url(#linear-gradient-2)"/>
        <path id="Path_176" data-name="Path 176" d="M1376.818,791.611l1.1-1.275a.748.748,0,1,1,1.135.975l-1.1,1.279a.749.749,0,0,1-1.137-.977Z" transform="translate(-1095.379 -662.857)" fill="url(#linear-gradient-2)"/>
        <path id="Path_177" data-name="Path 177" d="M1389.869,776.376l1.089-1.282a.744.744,0,1,1,1.136.961l-1.089,1.286a.745.745,0,0,1-1.137-.963Z" transform="translate(-1104.779 -651.88)" fill="url(#linear-gradient-2)"/>
        <path id="Path_178" data-name="Path 178" d="M1402.812,761.05l1.08-1.29a.74.74,0,1,1,1.136.948l-1.08,1.294a.741.741,0,1,1-1.138-.95Z" transform="translate(-1114.101 -640.838)" fill="url(#linear-gradient-2)"/>
        <path id="Path_179" data-name="Path 179" d="M1415.644,745.634l1.071-1.3a.736.736,0,1,1,1.136.935l-1.071,1.3a.737.737,0,1,1-1.138-.936Z" transform="translate(-1123.344 -629.731)" fill="url(#linear-gradient-2)"/>
        <path id="Path_180" data-name="Path 180" d="M1428.368,730.126l1.064-1.307a.731.731,0,1,1,1.136.922l-1.063,1.31a.733.733,0,0,1-1.138-.924Z" transform="translate(-1132.508 -618.557)" fill="url(#linear-gradient-2)"/>
        <path id="Path_181" data-name="Path 181" d="M1441,714.55l1.056-1.31a.727.727,0,0,1,1.134.911l-1.056,1.313a.728.728,0,1,1-1.135-.913Z" transform="translate(-1141.608 -607.338)" fill="url(#linear-gradient-2)"/>
        <path id="Path_182" data-name="Path 182" d="M1453.569,698.925l1.052-1.314a.723.723,0,0,1,1.13.9l-1.051,1.316a.724.724,0,0,1-1.132-.9Z" transform="translate(-1150.657 -596.085)" fill="url(#linear-gradient-2)"/>
        <path id="Path_183" data-name="Path 183" d="M1466.091,683.268l1.05-1.316a.719.719,0,0,1,1.125.9l-1.049,1.318a.72.72,0,1,1-1.127-.9Z" transform="translate(-1159.675 -584.811)" fill="url(#linear-gradient-2)"/>
        <path id="Path_184" data-name="Path 184" d="M1478.595,667.6l1.05-1.317a.715.715,0,0,1,1.118.891l-1.048,1.318a.716.716,0,0,1-1.121-.891Z" transform="translate(-1168.679 -573.53)" fill="url(#linear-gradient-2)"/>
        <path id="Path_185" data-name="Path 185" d="M1491.1,651.934l1.052-1.316a.711.711,0,0,1,1.111.887l-1.049,1.317a.712.712,0,0,1-1.114-.887Z" transform="translate(-1177.684 -562.254)" fill="url(#linear-gradient-2)"/>
        <path id="Path_186" data-name="Path 186" d="M1503.635,636.293l1.055-1.313a.706.706,0,0,1,1.1.885l-1.052,1.314a.708.708,0,0,1-1.106-.884Z" transform="translate(-1186.708 -550.996)" fill="url(#linear-gradient-2)"/>
        <path id="Path_187" data-name="Path 187" d="M1516.216,620.694l1.061-1.309a.7.7,0,1,1,1.091.884l-1.057,1.309a.7.7,0,0,1-1.1-.882Z" transform="translate(-1195.766 -539.77)" fill="url(#linear-gradient-2)"/>
        <path id="Path_188" data-name="Path 188" d="M1528.868,605.154l1.068-1.3a.7.7,0,1,1,1.08.885l-1.064,1.3a.7.7,0,1,1-1.085-.883Z" transform="translate(-1204.874 -528.588)" fill="url(#linear-gradient-2)"/>
        <path id="Path_189" data-name="Path 189" d="M1541.612,589.693l1.077-1.3a.694.694,0,1,1,1.068.887l-1.073,1.3a.7.7,0,1,1-1.073-.884Z" transform="translate(-1214.049 -517.465)" fill="url(#linear-gradient-2)"/>
        <path id="Path_190" data-name="Path 190" d="M1554.472,574.33l1.088-1.288a.69.69,0,1,1,1.053.891l-1.083,1.286a.691.691,0,1,1-1.06-.888Z" transform="translate(-1223.306 -506.413)" fill="url(#linear-gradient-2)"/>
        <path id="Path_191" data-name="Path 191" d="M1567.468,559.084l1.1-1.277a.686.686,0,1,1,1.038.9l-1.1,1.276a.687.687,0,1,1-1.045-.892Z" transform="translate(-1232.661 -495.449)" fill="url(#linear-gradient-2)"/>
        <path id="Path_192" data-name="Path 192" d="M1580.622,543.979l1.115-1.265a.682.682,0,1,1,1.022.9l-1.11,1.263a.683.683,0,0,1-1.029-.9Z" transform="translate(-1242.129 -484.587)" fill="url(#linear-gradient-2)"/>
        <path id="Path_193" data-name="Path 193" d="M1593.956,529.035l1.132-1.251a.677.677,0,1,1,1,.911l-1.126,1.248a.679.679,0,0,1-1.012-.905Z" transform="translate(-1251.727 -473.843)" fill="url(#linear-gradient-2)"/>
        <path id="Path_194" data-name="Path 194" d="M1607.492,514.276l1.15-1.234a.673.673,0,1,1,.985.918v0l-1.144,1.231,0,0a.675.675,0,0,1-.989-.918Z" transform="translate(-1261.469 -463.234)" fill="url(#linear-gradient-2)"/>
        <path id="Path_195" data-name="Path 195" d="M1621.251,499.728l1.17-1.216a.669.669,0,1,1,.964.928v0l-1.164,1.213,0,0a.671.671,0,0,1-.968-.928Z" transform="translate(-1271.371 -452.78)" fill="url(#linear-gradient-2)"/>
        <path id="Path_196" data-name="Path 196" d="M1635.253,485.418l1.192-1.2a.665.665,0,0,1,.942.939l0,0-1.185,1.191,0,0a.666.666,0,1,1-.945-.94Z" transform="translate(-1281.447 -442.498)" fill="url(#linear-gradient-2)"/>
        <path id="Path_197" data-name="Path 197" d="M1649.519,471.373l1.215-1.171a.661.661,0,0,1,.917.952l0,0-1.208,1.168,0,0a.662.662,0,0,1-.921-.952Z" transform="translate(-1291.713 -432.41)" fill="url(#linear-gradient-2)"/>
        <path id="Path_198" data-name="Path 198" d="M1664.067,457.627l1.24-1.145a.657.657,0,1,1,.891.965l0,0-1.232,1.141,0,0a.658.658,0,1,1-.895-.965Z" transform="translate(-1302.181 -422.539)" fill="url(#linear-gradient-2)"/>
        <path id="Path_199" data-name="Path 199" d="M1678.917,444.21l1.267-1.117a.653.653,0,0,1,.863.979l0,0-1.258,1.112,0,0a.654.654,0,1,1-.866-.98Z" transform="translate(-1312.866 -412.907)" fill="url(#linear-gradient-2)"/>
        <path id="Path_200" data-name="Path 200" d="M1694.085,431.153l1.3-1.086a.649.649,0,0,1,.833.994l0,0-1.287,1.082,0,0a.65.65,0,1,1-.836-.995Z" transform="translate(-1323.779 -403.536)" fill="url(#linear-gradient-2)"/>
        <path id="Path_201" data-name="Path 201" d="M1709.6,418.5l1.323-1.049a.644.644,0,1,1,.8,1.009l0,0-1.313,1.044,0,0a.646.646,0,1,1-.8-1.01Z" transform="translate(-1334.939 -394.461)" fill="url(#linear-gradient-2)"/>
        <path id="Path_202" data-name="Path 202" d="M1725.439,406.286l1.353-1.012a.64.64,0,1,1,.767,1.026l0,0-1.343,1.007,0,0a.642.642,0,1,1-.77-1.026Z" transform="translate(-1346.337 -385.703)" fill="url(#linear-gradient-2)"/>
        <path id="Path_203" data-name="Path 203" d="M1741.641,394.551l1.384-.97a.636.636,0,1,1,.73,1.042l0,0-1.373.965,0,0a.637.637,0,0,1-.733-1.043Z" transform="translate(-1357.992 -377.292)" fill="url(#linear-gradient-2)"/>
        <path id="Path_204" data-name="Path 204" d="M1758.2,383.333l1.415-.925a.632.632,0,0,1,.692,1.058l0,0-1.4.92-.005,0a.633.633,0,1,1-.695-1.059Z" transform="translate(-1369.907 -369.257)" fill="url(#linear-gradient-2)"/>
        <path id="Path_205" data-name="Path 205" d="M1775.133,372.674l1.446-.877a.628.628,0,0,1,.651,1.073l-.005,0-1.433.872-.005,0a.629.629,0,1,1-.654-1.075Z" transform="translate(-1382.084 -361.626)" fill="url(#linear-gradient-2)"/>
        <path id="Path_206" data-name="Path 206" d="M1792.424,362.615l1.476-.825a.624.624,0,1,1,.608,1.089l-.005,0-1.463.82-.006,0a.625.625,0,1,1-.611-1.09Z" transform="translate(-1394.522 -354.428)" fill="url(#linear-gradient-2)"/>
        <path id="Path_207" data-name="Path 207" d="M1810.073,353.192l1.506-.77a.619.619,0,0,1,.564,1.1l-.006,0-1.491.765-.006,0a.621.621,0,1,1-.567-1.1Z" transform="translate(-1407.216 -347.691)" fill="url(#linear-gradient-2)"/>
        <path id="Path_208" data-name="Path 208" d="M1828.068,344.443l1.534-.712a.615.615,0,0,1,.518,1.116l-.006,0-1.52.708-.006,0a.616.616,0,1,1-.521-1.118Z" transform="translate(-1420.16 -341.441)" fill="url(#linear-gradient-2)"/>
        <path id="Path_209" data-name="Path 209" d="M1846.4,336.4l1.56-.651a.611.611,0,0,1,.471,1.128l-.006,0-1.546.648-.007,0a.612.612,0,0,1-.473-1.13Z" transform="translate(-1433.342 -335.701)" fill="url(#linear-gradient-2)"/>
      </g>
      <path id="Path_210" data-name="Path 210" d="M493.214,1017.757h-.008q-.847-.006-1.694-.02a1.122,1.122,0,0,1-1.1-1.141,1.108,1.108,0,0,1,1.14-1.1q.836.013,1.673.019a1.123,1.123,0,0,1-.007,2.245Zm3.929-.012a1.123,1.123,0,0,1-.014-2.245q.837-.011,1.674-.028a1.123,1.123,0,1,1,.047,2.245q-.846.018-1.693.029Zm-9.539-.114h-.043q-.847-.032-1.694-.073a1.123,1.123,0,1,1,.107-2.242q.835.04,1.67.071a1.123,1.123,0,0,1-.041,2.245Zm15.149-.034a1.123,1.123,0,0,1-.043-2.244q.837-.033,1.674-.072a1.123,1.123,0,1,1,.1,2.243q-.846.04-1.691.073ZM482,1017.326l-.082,0q-.846-.061-1.69-.13a1.123,1.123,0,1,1,.184-2.238q.833.068,1.667.128a1.123,1.123,0,0,1-.08,2.242Zm26.359-.014a1.123,1.123,0,0,1-.069-2.243q.836-.052,1.672-.111a1.123,1.123,0,0,1,.157,2.24q-.844.059-1.689.112Zm5.6-.412a1.123,1.123,0,0,1-.093-2.241q.837-.071,1.672-.146a1.123,1.123,0,0,1,.2,2.237q-.842.075-1.684.146C514.02,1016.9,513.988,1016.9,513.956,1016.9Zm-37.546-.076a1.124,1.124,0,0,1-.123-.007q-.843-.092-1.686-.193a1.123,1.123,0,0,1,.268-2.229q.829.1,1.66.19a1.123,1.123,0,0,1-.12,2.239Zm43.135-.448a1.123,1.123,0,0,1-.114-2.239q.835-.086,1.669-.176a1.123,1.123,0,0,1,.242,2.232q-.839.091-1.681.178A1.1,1.1,0,0,1,519.545,1016.376Zm-48.7-.267a1.149,1.149,0,0,1-.166-.012q-.84-.125-1.678-.26a1.123,1.123,0,1,1,.357-2.217q.824.133,1.65.256a1.123,1.123,0,0,1-.164,2.234Zm54.281-.355a1.123,1.123,0,0,1-.132-2.237q.834-.1,1.667-.2a1.123,1.123,0,0,1,.276,2.228q-.838.1-1.677.2A1.169,1.169,0,0,1,525.124,1015.754Zm-59.813-.587a1.109,1.109,0,0,1-.213-.02q-.834-.16-1.667-.332a1.123,1.123,0,0,1,.454-2.2q.817.168,1.637.326a1.123,1.123,0,0,1-.211,2.225Zm65.382-.12a1.123,1.123,0,0,1-.148-2.235l1.664-.228a1.123,1.123,0,1,1,.308,2.224q-.836.116-1.673.229A1.149,1.149,0,0,1,530.692,1015.047Zm5.557-.79a1.123,1.123,0,0,1-.165-2.233q.83-.124,1.66-.252a1.123,1.123,0,1,1,.342,2.219q-.834.129-1.67.253A1.1,1.1,0,0,1,536.25,1014.257Zm-76.426-.274a1.13,1.13,0,0,1-.262-.031q-.826-.2-1.65-.407a1.123,1.123,0,1,1,.554-2.176q.809.206,1.62.4a1.123,1.123,0,0,1-.261,2.214Zm81.972-.6a1.123,1.123,0,0,1-.181-2.23q.829-.137,1.657-.276a1.123,1.123,0,0,1,.374,2.214q-.832.141-1.665.278A1.161,1.161,0,0,1,541.8,1013.386Zm-87.4-.84a1.128,1.128,0,0,1-.314-.045q-.816-.237-1.63-.487a1.123,1.123,0,0,1,.658-2.147q.8.245,1.6.477a1.123,1.123,0,0,1-.313,2.2Zm92.93-.112a1.123,1.123,0,0,1-.2-2.228q.827-.148,1.652-.3a1.123,1.123,0,0,1,.406,2.208q-.83.153-1.661.3A1.135,1.135,0,0,1,547.327,1012.434Zm5.517-1.033a1.123,1.123,0,0,1-.213-2.225q.825-.161,1.648-.325a1.123,1.123,0,1,1,.438,2.2q-.828.165-1.656.327A1.122,1.122,0,0,1,552.844,1011.4Zm-103.8-.562a1.115,1.115,0,0,1-.371-.063q-.8-.281-1.6-.576a1.123,1.123,0,1,1,.777-2.107q.783.289,1.569.564a1.123,1.123,0,0,1-.371,2.182Zm109.3-.551a1.123,1.123,0,0,1-.23-2.222q.822-.172,1.643-.349a1.123,1.123,0,0,1,.47,2.2q-.825.177-1.652.35A1.135,1.135,0,0,1,558.346,1010.288Zm5.485-1.193a1.123,1.123,0,0,1-.246-2.218q.819-.184,1.637-.372a1.123,1.123,0,1,1,.5,2.188q-.823.189-1.647.375A1.144,1.144,0,0,1,563.831,1009.095Zm-120.029-.256a1.119,1.119,0,0,1-.429-.086q-.787-.326-1.569-.664a1.123,1.123,0,0,1,.893-2.06q.765.332,1.535.65a1.123,1.123,0,0,1-.43,2.16Zm125.5-1.017a1.123,1.123,0,0,1-.261-2.214q.816-.2,1.632-.4a1.123,1.123,0,0,1,.534,2.181q-.82.2-1.641.4A1.125,1.125,0,0,1,569.3,1007.822Zm-130.623-1.274a1.119,1.119,0,0,1-.486-.111q-.768-.37-1.529-.752a1.123,1.123,0,1,1,1.008-2.006q.744.374,1.495.735a1.123,1.123,0,0,1-.487,2.134Zm136.071-.078a1.123,1.123,0,0,1-.277-2.211q.814-.209,1.626-.42a1.123,1.123,0,0,1,.566,2.173q-.817.212-1.635.422A1.132,1.132,0,0,1,574.746,1006.47Zm5.428-1.43a1.123,1.123,0,0,1-.293-2.207q.811-.22,1.62-.443a1.123,1.123,0,0,1,.6,2.164q-.815.224-1.63.446A1.132,1.132,0,0,1,580.174,1005.04Zm-146.486-1.069a1.119,1.119,0,0,1-.543-.141q-.745-.413-1.482-.838a1.123,1.123,0,1,1,1.122-1.945q.721.415,1.449.819a1.123,1.123,0,0,1-.545,2.1Zm151.892-.44a1.123,1.123,0,0,1-.309-2.2q.807-.232,1.613-.466a1.122,1.122,0,0,1,.628,2.155q-.81.237-1.622.469A1.13,1.13,0,0,1,585.581,1003.531Zm5.384-1.587a1.123,1.123,0,0,1-.325-2.2q.8-.243,1.606-.489a1.122,1.122,0,1,1,.66,2.146q-.807.249-1.616.493A1.123,1.123,0,0,1,590.965,1001.944Zm-162.1-.836a1.116,1.116,0,0,1-.6-.175q-.72-.456-1.431-.925a1.123,1.123,0,1,1,1.237-1.874q.694.458,1.4.9a1.123,1.123,0,0,1-.6,2.071Zm167.464-.829a1.123,1.123,0,0,1-.34-2.193q.8-.255,1.6-.513a1.123,1.123,0,1,1,.691,2.136q-.8.259-1.608.516A1.13,1.13,0,0,1,596.326,1000.279Zm5.336-1.741a1.123,1.123,0,0,1-.356-2.188q.8-.266,1.591-.536a1.123,1.123,0,0,1,.721,2.126q-.8.271-1.6.539A1.12,1.12,0,0,1,601.662,998.538Zm-177.445-.579a1.117,1.117,0,0,1-.657-.213q-.691-.5-1.371-1.012a1.123,1.123,0,1,1,1.35-1.794q.664.5,1.337.986a1.123,1.123,0,0,1-.659,2.032Zm182.756-1.239a1.123,1.123,0,0,1-.371-2.182q.793-.278,1.583-.559a1.123,1.123,0,0,1,.752,2.116q-.8.283-1.593.563A1.124,1.124,0,0,1,606.973,996.72Zm5.284-1.895a1.123,1.123,0,0,1-.386-2.177q.789-.289,1.575-.581a1.123,1.123,0,0,1,.782,2.1q-.792.294-1.584.585A1.127,1.127,0,0,1,612.256,994.825Zm-192.476-.3a1.117,1.117,0,0,1-.715-.257q-.658-.543-1.3-1.1a1.123,1.123,0,0,1,1.465-1.7q.629.541,1.269,1.07a1.123,1.123,0,0,1-.716,1.988Zm197.733-1.672a1.123,1.123,0,0,1-.4-2.171l1.567-.6a1.123,1.123,0,1,1,.812,2.093q-.787.305-1.575.608A1.125,1.125,0,0,1,617.513,992.855Zm-201.935-2.044a1.118,1.118,0,0,1-.771-.307q-.621-.587-1.227-1.186a1.122,1.122,0,1,1,1.577-1.6q.59.582,1.193,1.152a1.123,1.123,0,0,1-.772,1.938Zm207.162,0a1.123,1.123,0,0,1-.417-2.165q.779-.311,1.557-.626a1.123,1.123,0,1,1,.843,2.081q-.783.318-1.567.63A1.119,1.119,0,0,1,622.74,990.808Zm5.2-2.12a1.123,1.123,0,0,1-.432-2.159q.776-.323,1.549-.649a1.123,1.123,0,1,1,.872,2.069q-.778.328-1.557.653A1.122,1.122,0,0,1,627.937,988.688Zm-216.294-1.875a1.121,1.121,0,0,1-.828-.364q-.577-.63-1.14-1.272a1.123,1.123,0,1,1,1.688-1.48q.546.623,1.107,1.234a1.123,1.123,0,0,1-.827,1.882Zm221.46-.321a1.123,1.123,0,0,1-.447-2.153q.771-.334,1.54-.672a1.123,1.123,0,1,1,.9,2.057q-.773.338-1.547.675A1.119,1.119,0,0,1,633.1,986.492Zm5.134-2.27a1.123,1.123,0,0,1-.462-2.146q.766-.345,1.53-.693a1.123,1.123,0,0,1,.931,2.044q-.769.35-1.538.7A1.119,1.119,0,0,1,638.237,984.222ZM408.009,982.54a1.12,1.12,0,0,1-.883-.428q-.529-.671-1.042-1.355a1.123,1.123,0,0,1,1.8-1.348q.5.663,1.01,1.313a1.123,1.123,0,0,1-.881,1.818Zm235.328-.662a1.123,1.123,0,0,1-.477-2.14q.761-.357,1.519-.716a1.123,1.123,0,1,1,.961,2.029q-.763.361-1.527.719A1.119,1.119,0,0,1,643.337,981.878Zm5.066-2.418a1.123,1.123,0,0,1-.492-2.133q.755-.367,1.508-.737a1.123,1.123,0,1,1,.991,2.015q-.758.373-1.518.742A1.118,1.118,0,0,1,648.4,979.46ZM404.712,978a1.122,1.122,0,0,1-.935-.5q-.475-.711-.933-1.434a1.123,1.123,0,0,1,1.9-1.2q.443.7.9,1.389a1.123,1.123,0,0,1-.932,1.746Zm248.721-1.032a1.123,1.123,0,0,1-.506-2.125q.75-.378,1.5-.759a1.123,1.123,0,0,1,1.02,2q-.753.384-1.507.764A1.119,1.119,0,0,1,653.433,976.969Zm4.994-2.564a1.123,1.123,0,0,1-.521-2.118q.744-.389,1.487-.781a1.123,1.123,0,1,1,1.049,1.985q-.747.394-1.5.786A1.115,1.115,0,0,1,658.427,974.406Zm-256.638-1.194a1.123,1.123,0,0,1-.983-.578q-.415-.749-.812-1.509a1.123,1.123,0,1,1,1.99-1.039q.384.734.785,1.459a1.123,1.123,0,0,1-.981,1.667Zm261.594-1.441a1.123,1.123,0,0,1-.535-2.11q.738-.4,1.476-.8a1.123,1.123,0,0,1,1.077,1.97q-.741.4-1.483.807A1.118,1.118,0,0,1,663.383,971.77Zm4.917-2.708a1.123,1.123,0,0,1-.55-2.1q.732-.411,1.463-.824a1.123,1.123,0,1,1,1.107,1.953q-.735.416-1.472.829A1.119,1.119,0,0,1,668.3,969.062Zm-269.025-.87a1.123,1.123,0,0,1-1.025-.663q-.351-.782-.682-1.575a1.123,1.123,0,0,1,2.072-.865q.32.766.658,1.521a1.122,1.122,0,0,1-1.024,1.582Zm273.9-1.909a1.123,1.123,0,0,1-.564-2.094q.727-.421,1.451-.845a1.122,1.122,0,0,1,1.135,1.937q-.729.428-1.46.851A1.119,1.119,0,0,1,673.177,966.283Zm4.835-2.85a1.123,1.123,0,0,1-.578-2.086q.72-.432,1.438-.867a1.123,1.123,0,1,1,1.162,1.921q-.722.437-1.446.871A1.117,1.117,0,0,1,678.012,963.433Zm4.794-2.921a1.123,1.123,0,0,1-.592-2.078q.714-.441,1.425-.887a1.123,1.123,0,1,1,1.192,1.9q-.716.448-1.435.893A1.117,1.117,0,0,1,682.806,960.512Zm4.749-2.991a1.123,1.123,0,0,1-.606-2.068q.708-.453,1.413-.909a1.123,1.123,0,1,1,1.218,1.886q-.709.458-1.42.913A1.116,1.116,0,0,1,687.555,957.521Zm4.705-3.061a1.123,1.123,0,0,1-.62-2.06q.7-.463,1.4-.928a1.123,1.123,0,1,1,1.245,1.868q-.7.468-1.406.934A1.117,1.117,0,0,1,692.261,954.46Zm4.663-3.125a1.123,1.123,0,0,1-.632-2.051l1.388-.947a1.123,1.123,0,0,1,1.268,1.853l-1.394.951A1.118,1.118,0,0,1,696.923,951.335Zm4.625-3.18a1.123,1.123,0,0,1-.642-2.044l1.379-.961a1.123,1.123,0,1,1,1.287,1.84l-1.384.965A1.117,1.117,0,0,1,701.549,948.155Zm4.594-3.225a1.123,1.123,0,0,1-.65-2.039l1.371-.974a1.123,1.123,0,0,1,1.3,1.829l-1.375.976A1.115,1.115,0,0,1,706.142,944.93Zm4.569-3.26a1.123,1.123,0,0,1-.656-2.034l1.366-.983a1.123,1.123,0,0,1,1.312,1.822l-1.368.984A1.116,1.116,0,0,1,710.712,941.67Zm4.551-3.286a1.123,1.123,0,0,1-.66-2.031l1.362-.989a1.123,1.123,0,0,1,1.32,1.816l-1.364.99A1.116,1.116,0,0,1,715.263,938.384Zm4.539-3.3a1.123,1.123,0,0,1-.662-2.03l1.36-.992a1.123,1.123,0,0,1,1.323,1.814l-1.361.992A1.116,1.116,0,0,1,719.8,935.083Zm4.535-3.309a1.123,1.123,0,0,1-.663-2.03l1.36-.992a1.123,1.123,0,0,1,1.324,1.813l-1.361.993A1.116,1.116,0,0,1,724.337,931.774Zm4.536-3.306a1.123,1.123,0,0,1-.661-2.031l1.363-.991a1.123,1.123,0,0,1,1.319,1.817l-1.361.989A1.119,1.119,0,0,1,728.873,928.468Zm4.545-3.294a1.123,1.123,0,0,1-.658-2.033l1.368-.986a1.123,1.123,0,0,1,1.311,1.823l-1.365.983A1.118,1.118,0,0,1,733.418,925.174Zm4.561-3.273a1.123,1.123,0,0,1-.653-2.037l1.373-.977a1.123,1.123,0,1,1,1.3,1.83l-1.371.976A1.119,1.119,0,0,1,737.979,921.9Zm4.583-3.242a1.123,1.123,0,0,1-.645-2.042l1.383-.967a1.122,1.122,0,1,1,1.284,1.841l-1.377.964A1.122,1.122,0,0,1,742.562,918.659Zm4.611-3.2a1.123,1.123,0,0,1-.637-2.048q.7-.478,1.393-.953a1.123,1.123,0,1,1,1.265,1.855q-.694.473-1.386.949A1.117,1.117,0,0,1,747.173,915.457Zm4.646-3.151a1.123,1.123,0,0,1-.625-2.056q.7-.469,1.4-.937a1.123,1.123,0,0,1,1.242,1.871q-.7.465-1.4.932A1.117,1.117,0,0,1,751.819,912.306Zm4.685-3.091a1.123,1.123,0,0,1-.613-2.064q.708-.46,1.418-.917a1.123,1.123,0,1,1,1.214,1.888q-.706.454-1.41.911A1.118,1.118,0,0,1,756.5,909.215Zm4.731-3.019a1.123,1.123,0,0,1-.6-2.074q.716-.448,1.433-.893a1.123,1.123,0,0,1,1.183,1.908q-.713.442-1.424.888A1.117,1.117,0,0,1,761.235,906.2Zm4.782-2.938a1.123,1.123,0,0,1-.58-2.084l.308-.185q.569-.342,1.142-.682a1.123,1.123,0,0,1,1.147,1.931q-.568.338-1.134.677l-.3.183A1.118,1.118,0,0,1,766.017,903.257Zm4.837-2.842a1.123,1.123,0,0,1-.559-2.1q.733-.42,1.47-.836a1.123,1.123,0,0,1,1.1,1.956q-.73.411-1.456.828A1.117,1.117,0,0,1,770.854,900.415Zm4.9-2.734a1.123,1.123,0,0,1-.536-2.109q.743-.4,1.489-.8a1.123,1.123,0,0,1,1.058,1.981q-.74.4-1.476.794A1.113,1.113,0,0,1,775.754,897.682Zm4.964-2.617a1.123,1.123,0,0,1-.512-2.123q.753-.385,1.509-.765a1.122,1.122,0,1,1,1.007,2.006q-.748.376-1.495.758A1.117,1.117,0,0,1,780.719,895.064Zm5.03-2.491a1.123,1.123,0,0,1-.486-2.135q.764-.366,1.531-.725a1.123,1.123,0,0,1,.953,2.033q-.758.355-1.514.717A1.114,1.114,0,0,1,785.749,892.573Zm5.1-2.355a1.123,1.123,0,0,1-.457-2.148q.774-.345,1.551-.682a1.123,1.123,0,0,1,.9,2.059q-.768.334-1.534.675A1.116,1.116,0,0,1,790.845,890.218Zm5.162-2.207a1.123,1.123,0,0,1-.426-2.161q.785-.322,1.571-.636a1.123,1.123,0,1,1,.833,2.085q-.777.31-1.553.628A1.124,1.124,0,0,1,796.007,888.011Zm5.229-2.047a1.123,1.123,0,0,1-.393-2.175q.8-.3,1.592-.585a1.123,1.123,0,1,1,.765,2.111q-.787.285-1.572.578A1.119,1.119,0,0,1,801.236,885.964Zm5.293-1.876a1.123,1.123,0,0,1-.357-2.187q.8-.27,1.612-.531a1.123,1.123,0,1,1,.692,2.136q-.8.258-1.59.523A1.119,1.119,0,0,1,806.529,884.088Zm5.355-1.69a1.123,1.123,0,0,1-.318-2.2q.814-.24,1.631-.472a1.123,1.123,0,0,1,.614,2.16q-.805.228-1.608.466A1.122,1.122,0,0,1,811.884,882.4Zm5.413-1.49a1.123,1.123,0,0,1-.276-2.211q.824-.209,1.649-.409a1.123,1.123,0,1,1,.527,2.182q-.812.2-1.622.4A1.112,1.112,0,0,1,817.3,880.908Zm5.468-1.276a1.123,1.123,0,0,1-.232-2.221q.831-.177,1.664-.342a1.123,1.123,0,1,1,.437,2.2q-.819.163-1.636.336A1.129,1.129,0,0,1,822.765,879.632Zm5.515-1.046a1.123,1.123,0,0,1-.184-2.23q.838-.14,1.678-.269a1.122,1.122,0,1,1,.341,2.219q-.824.127-1.648.265A1.138,1.138,0,0,1,828.281,878.586Zm5.556-.8a1.123,1.123,0,0,1-.134-2.237q.844-.1,1.688-.193a1.123,1.123,0,0,1,.239,2.233q-.829.089-1.657.189A1.2,1.2,0,0,1,833.836,877.784Zm5.585-.543a1.123,1.123,0,0,1-.081-2.242q.847-.062,1.695-.112a1.123,1.123,0,1,1,.132,2.241q-.832.049-1.663.109C839.477,877.24,839.449,877.241,839.422,877.241Zm12.9-.2h-.05q-.833-.036-1.666-.06a1.123,1.123,0,0,1,.064-2.244q.85.024,1.7.061a1.123,1.123,0,0,1-.048,2.244Zm-7.3-.073a1.123,1.123,0,0,1-.026-2.245q.85-.02,1.7-.027a1.123,1.123,0,0,1,.02,2.245q-.834.007-1.667.027Z" transform="translate(-321.04 -652.472)" fill="url(#linear-gradient-2)"/>
      <g id="Group_27" data-name="Group 27" transform="translate(475.091 47.619)">
        <path id="Path_211" data-name="Path 211" d="M1855.509,291.381l1.312,9.384,5.791-4.923Z" transform="translate(-1845.93 -280.096)" fill="#7d97f4"/>
        <path id="Path_212" data-name="Path 212" d="M1872.32,251.075l-22.235,25.772a2.4,2.4,0,0,1-3.45.189l-25.034-23.3a.961.961,0,0,1,.636-1.665Z" transform="translate(-1821.295 -251.075)" fill="#91b3fa"/>
        <path id="Path_213" data-name="Path 213" d="M1855.521,262.361l41.442-11.286-37.414,15.058.253,2.618Z" transform="translate(-1845.938 -251.075)" fill="#7d97f4"/>
        <path id="Path_214" data-name="Path 214" d="M1865.319,307.076l-5.125,3.392,2.72-5.611Z" transform="translate(-1849.303 -289.799)" fill="#7d97f4"/>
      </g>
    </g>
  </g>
</svg>
