<svg xmlns="http://www.w3.org/2000/svg" xmlns:xlink="http://www.w3.org/1999/xlink" width="132" height="123" viewBox="0 0 132 123">
  <defs>
    <linearGradient id="linear-gradient" x1="0.5" x2="0.5" y2="1" gradientUnits="objectBoundingBox">
      <stop offset="0" stop-color="#ff8f16"/>
      <stop offset="1" stop-color="#ff4409"/>
    </linearGradient>
    <clipPath id="clip-serv-1">
      <rect width="132" height="123"/>
    </clipPath>
  </defs>
  <g id="serv-1" clip-path="url(#clip-serv-1)">
    <rect width="132" height="123" fill="#fff"/>
    <g id="cloud-network" transform="translate(20.523 16.023)">
      <path id="Path_236" data-name="Path 236" d="M42.217,21.869V19A17.236,17.236,0,0,0,25,36.217h2.869A14.364,14.364,0,0,1,42.217,21.869Z" transform="translate(10.434 7.825)" fill="url(#linear-gradient)"/>
      <path id="Path_237" data-name="Path 237" d="M38.819,22.02a14.364,14.364,0,0,1,2.607.742l1.046-2.671A17.2,17.2,0,0,0,39.34,19.2Z" transform="translate(16.442 7.912)" fill="url(#linear-gradient)"/>
      <path id="Path_238" data-name="Path 238" d="M62.478,40.174A7.182,7.182,0,0,0,55.3,33v2.869a4.3,4.3,0,1,1,0,8.608H51v2.869h4.3A7.182,7.182,0,0,0,62.478,40.174Z" transform="translate(21.737 13.912)" fill="url(#linear-gradient)"/>
      <path id="Path_239" data-name="Path 239" d="M47,41h2.869v2.869H47Z" transform="translate(19.998 17.39)" fill="url(#linear-gradient)"/>
      <path id="Path_240" data-name="Path 240" d="M43,41h2.869v2.869H43Z" transform="translate(18.259 17.39)" fill="url(#linear-gradient)"/>
      <path id="Path_241" data-name="Path 241" d="M77.042,67A12.913,12.913,0,1,0,75.42,41.286a22.749,22.749,0,0,0-26-19.946A24.379,24.379,0,1,0,8.1,42.572,12.9,12.9,0,0,0,13.913,67H23.956V82.781a1.437,1.437,0,0,1-1.435,1.435H15.083a4.3,4.3,0,1,0,0,2.869h7.438a4.309,4.309,0,0,0,4.3-4.3V67h5.739v7.438a4.3,4.3,0,1,0,2.869,0V67h8.608V81.61a4.3,4.3,0,1,0,2.869,0V67H55.52v7.438a4.3,4.3,0,1,0,2.869,0V67h5.739V82.781a4.309,4.309,0,0,0,4.3,4.3h7.438a4.3,4.3,0,1,0,0-2.869H68.433A1.437,1.437,0,0,1,67,82.781V67Zm-66,20.086a1.435,1.435,0,1,1,1.435-1.435A1.437,1.437,0,0,1,11.043,87.085ZM34,79.911a1.435,1.435,0,1,1,1.435-1.435A1.437,1.437,0,0,1,34,79.911Zm11.478,7.174a1.435,1.435,0,1,1,1.435-1.435A1.437,1.437,0,0,1,45.477,87.085Zm11.478-7.174a1.435,1.435,0,1,1,1.435-1.435A1.437,1.437,0,0,1,56.955,79.911Zm22.956,4.3a1.435,1.435,0,1,1-1.435,1.435A1.437,1.437,0,0,1,79.911,84.215ZM31.081,36.263a11.477,11.477,0,0,0-4.255-.829H16.571a40.463,40.463,0,0,1-1.176-8.608H35.4c-.024.759-.065,1.512-.128,2.26A22.944,22.944,0,0,0,31.081,36.263ZM3.948,26.825h8.577a43.838,43.838,0,0,0,1.092,8.608H6.386a21.406,21.406,0,0,1-2.438-8.608ZM25.391,3.869c3.2,0,6.1,3.425,7.957,8.608H17.434C19.287,7.294,22.188,3.869,25.391,3.869Zm8.837,11.478A40.694,40.694,0,0,1,35.4,23.956H15.382a40.694,40.694,0,0,1,1.171-8.608ZM12.515,23.956H3.943a21.346,21.346,0,0,1,2.429-8.608h7.223A43.639,43.639,0,0,0,12.515,23.956Zm24.672-8.608H44.44a21.451,21.451,0,0,1,2.169,6.573,22.894,22.894,0,0,0-8.324,4.244c.006-.258.019-.515.019-.773a44.3,44.3,0,0,0-1.116-10.043Zm5.433-2.869H36.387a23.819,23.819,0,0,0-3.7-7.329A21.441,21.441,0,0,1,42.621,12.478Zm-24.544-7.3a23.9,23.9,0,0,0-3.682,7.3H8.215A21.577,21.577,0,0,1,18.076,5.177ZM8.19,38.3H19.259A11.526,11.526,0,0,0,16.7,41.514a12.9,12.9,0,0,0-2.789-.341,12.882,12.882,0,0,0-2.772.307A21.64,21.64,0,0,1,8.19,38.3ZM3.869,54.086A9.988,9.988,0,0,1,15.682,44.21a11.41,11.41,0,0,0-.334,2.7h2.869a8.6,8.6,0,0,1,12.048-7.887,22.866,22.866,0,0,0-.57,5.017h2.869a20.075,20.075,0,0,1,40.044-2.069,12.924,12.924,0,0,0-8.479,12.112H67A10.043,10.043,0,1,1,77.042,64.129H13.913A10.054,10.054,0,0,1,3.869,54.086Z" fill="url(#linear-gradient)"/>
      <path id="Path_242" data-name="Path 242" d="M39.3,35a4.3,4.3,0,1,0,4.3,4.3A4.309,4.309,0,0,0,39.3,35Zm0,5.739A1.435,1.435,0,1,1,40.739,39.3,1.437,1.437,0,0,1,39.3,40.739Z" transform="translate(14.781 14.781)" fill="url(#linear-gradient)"/>
      <path id="Path_243" data-name="Path 243" d="M31.3,35a4.3,4.3,0,1,0,4.3,4.3A4.309,4.309,0,0,0,31.3,35Zm0,5.739A1.435,1.435,0,1,1,32.739,39.3,1.437,1.437,0,0,1,31.3,40.739Z" transform="translate(11.303 14.781)" fill="url(#linear-gradient)"/>
      <path id="Path_244" data-name="Path 244" d="M23.3,35a4.3,4.3,0,1,0,4.3,4.3A4.309,4.309,0,0,0,23.3,35Zm0,5.739A1.435,1.435,0,1,1,24.739,39.3,1.437,1.437,0,0,1,23.3,40.739Z" transform="translate(7.825 14.781)" fill="url(#linear-gradient)"/>
      <path id="Path_245" data-name="Path 245" d="M52.739,22.608h2.869A8.617,8.617,0,0,0,47,14v2.869A5.745,5.745,0,0,1,52.739,22.608Z" transform="translate(19.998 5.652)" fill="url(#linear-gradient)"/>
      <path id="Path_246" data-name="Path 246" d="M58.478,24.347h2.869A14.364,14.364,0,0,0,47,10v2.869A11.491,11.491,0,0,1,58.478,24.347Z" transform="translate(19.998 3.913)" fill="url(#linear-gradient)"/>
      <path id="Path_247" data-name="Path 247" d="M64.217,26.086h2.869A20.109,20.109,0,0,0,47,6V8.869A17.236,17.236,0,0,1,64.217,26.086Z" transform="translate(19.998 2.174)" fill="url(#linear-gradient)"/>
    </g>
  </g>
</svg>
