<svg xmlns="http://www.w3.org/2000/svg" xmlns:xlink="http://www.w3.org/1999/xlink" width="63" height="63" viewBox="0 0 63 63">
  <defs>
    <linearGradient id="linear-gradient" x1="0.5" x2="0.5" y2="1" gradientUnits="objectBoundingBox">
      <stop offset="0" stop-color="#382092"/>
      <stop offset="1" stop-color="#6d4dd0"/>
    </linearGradient>
    <linearGradient id="linear-gradient-2" x1="0.5" x2="0.5" y2="1" gradientUnits="objectBoundingBox">
      <stop offset="0" stop-color="#fff"/>
      <stop offset="1" stop-color="#c8f2ff"/>
    </linearGradient>
  </defs>
  <g id="ico-3" transform="translate(-202 -559)">
    <circle id="Ellipse_15" data-name="Ellipse 15" cx="31.5" cy="31.5" r="31.5" transform="translate(202 559)" fill="url(#linear-gradient)"/>
    <g id="placeholder" transform="translate(215.952 571.956)">
      <g id="Group_200" data-name="Group 200" transform="translate(0.005 1)">
        <g id="Group_199" data-name="Group 199" transform="translate(0 0)">
          <path id="Path_447" data-name="Path 447" d="M26.655,313.5a1.461,1.461,0,1,0-.674,2.843c4.541,1.077,6.187,2.671,6.187,3.481,0,1.747-5.83,4.386-14.619,4.386s-14.619-2.639-14.619-4.386c0-.81,1.648-2.4,6.185-3.481A1.461,1.461,0,1,0,8.44,313.5C3,314.787,0,317.033,0,319.822c0,4.8,8.827,7.31,17.543,7.31s17.543-2.512,17.543-7.31C35.092,317.033,32.1,314.787,26.655,313.5Z" transform="translate(-0.005 -292.045)" fill="url(#linear-gradient-2)"/>
          <path id="Path_448" data-name="Path 448" d="M236.144,131.939a1.462,1.462,0,1,0-1.462-1.462A1.462,1.462,0,0,0,236.144,131.939Z" transform="translate(-218.6 -120.242)" fill="url(#linear-gradient-2)"/>
          <path id="Path_449" data-name="Path 449" d="M115.016,28.242l.6,1.19a1.463,1.463,0,0,0,2.617,0l1.26-2.52A101.153,101.153,0,0,1,124.742,18l.833-1.311A10.231,10.231,0,0,0,115.724,1.07a10.225,10.225,0,0,0-7.05,16.217A73.553,73.553,0,0,1,115.016,28.242Zm1.9-21.393a4.386,4.386,0,1,1-4.386,4.386A4.391,4.391,0,0,1,116.92,6.849Z" transform="translate(-99.375 -1)" fill="url(#linear-gradient-2)"/>
        </g>
      </g>
    </g>
  </g>
</svg>
